<?xml version="1.0" encoding="utf-8"?>
<!-- Generator: Adobe Illustrator 26.0.0, SVG Export Plug-In . SVG Version: 6.00 Build 0)  -->
<svg version="1.1" id="Calque_1" xmlns="http://www.w3.org/2000/svg" xmlns:xlink="http://www.w3.org/1999/xlink" x="0px" y="0px"
	 viewBox="0 0 152 45" style="enable-background:new 0 0 152 45;" xml:space="preserve">
<style type="text/css">
	.st0{fill:#EE8D00;}
	.st1{fill:#F0B700;}
	.st2{fill:#D2CD00;}
	.st3{fill:#00A0A8;}
	.st4{fill:#88755C;}
</style>
<g>
	<g>
		<g>
			<path class="st0" d="M29.74,25.97c0.67-0.92,1-2.11,1-3.57c0-0.88-0.12-1.65-0.33-2.34c-0.76,0.72-1.25,1.62-1.25,2.71
				C29.16,23.66,29.35,24.8,29.74,25.97z"/>
			<path class="st0" d="M38.18,17.53c0.23,1.28,0.35,2.58,0.35,3.84c0,4.77-0.93,8.19-2.35,10.63c0.24,0.02,0.48,0.04,0.73,0.04
				c6.68,0,8.12-6.21,8.12-8.91C45.03,18.81,40.61,17.65,38.18,17.53z"/>
			<path class="st0" d="M31.46,22.4c0,1.81-0.51,3.24-1.44,4.32c0.26,0.62,0.57,1.24,0.95,1.83c1.31-1.5,1.98-3.67,1.98-6.49
				c0-1.19-0.2-2.29-0.55-3.31c-0.5,0.23-0.97,0.5-1.39,0.81C31.28,20.38,31.46,21.31,31.46,22.4z"/>
			<path class="st0" d="M33.78,22.06c0,3.41-0.93,5.69-2.32,7.2c0.35,0.45,0.75,0.86,1.19,1.23c1.48-1.85,2.45-4.63,2.45-8.77
				c0-1.27-0.17-2.54-0.49-3.75c-0.48,0.13-0.96,0.28-1.44,0.46C33.56,19.54,33.78,20.75,33.78,22.06z"/>
			<path class="st0" d="M36.16,21.72c0,4.43-1.08,7.4-2.65,9.39c0.44,0.27,0.92,0.48,1.43,0.64c1.45-2.32,2.37-5.64,2.37-10.37
				c0-0.66-0.05-2.11-0.38-3.81c-0.41,0.03-0.85,0.09-1.32,0.18C35.97,19.04,36.16,20.39,36.16,21.72z"/>
			<path class="st1" d="M22.81,11.69c3.7,0,6.76,1.41,8.7,3.75c0.41-0.55,0.74-1.14,1.02-1.72c-1.76-2.21-4.45-3.68-8.18-3.68
				c-1.96,0-5.59,0.47-8.78,1.69c0.06,0.39,0.18,0.77,0.38,1.15C18.21,12.06,20.77,11.69,22.81,11.69z"/>
			<path class="st1" d="M33.52,8.87C33.26,5.51,31.49,0,25.33,0c-4.76,0-7.63,4.5-8.95,7.91c3.63-1.14,7.35-1.59,9.52-1.59
				C29.13,6.32,31.62,7.3,33.52,8.87z"/>
			<path class="st1" d="M17.49,14.75c1.12-0.26,2.39-0.4,3.79-0.4c2.08,0,6.04,0.37,8.36,2.89c0.49-0.32,0.93-0.7,1.31-1.12
				c-1.79-2.24-4.65-3.59-8.14-3.59c-1.91,0-4.3,0.32-6.42,1.05C16.69,13.99,17.06,14.38,17.49,14.75z"/>
			<path class="st1" d="M28.97,17.63c-2.16-2.23-5.78-2.56-7.69-2.56c-1.12,0-2.14,0.1-3.07,0.26c2.36,1.74,5.75,2.94,7.95,2.94
				C27.24,18.27,28.17,18.03,28.97,17.63z"/>
			<path class="st1" d="M24.35,8.99c3.84,0,6.68,1.49,8.62,3.7c0.32-0.88,0.49-1.68,0.55-2.25c-1.69-1.71-4.11-2.92-7.63-2.92
				c-2.17,0-6.24,0.52-10,1.82c-0.14,0.47-0.23,0.88-0.29,1.24C18.71,9.45,22.12,8.99,24.35,8.99z"/>
			<path class="st2" d="M8.29,18.29c0-2.78,1.78-4.82,4.22-6.27c-0.36-0.24-0.74-0.43-1.12-0.56c-2.3,1.5-3.9,3.48-3.9,6.06
				c0,2.29,0.85,5.24,2.37,8.14c0.25-0.02,0.5-0.07,0.72-0.14C9.12,22.94,8.29,20.32,8.29,18.29z"/>
			<path class="st2" d="M10.28,19.06c0-2.41,1.56-4.13,3.7-5.31c-0.18-0.38-0.38-0.72-0.63-1c-2.3,1.28-4.01,3.07-4.01,5.54
				c0,1.9,0.78,4.36,2.14,6.76c0.23-0.17,0.44-0.35,0.63-0.57C10.94,22.55,10.28,20.58,10.28,19.06z"/>
			<path class="st2" d="M9.78,11.13c-0.31-0.03-0.6-0.04-0.86-0.04c-2.8,0-8.78,2.31-8.78,6.56c0,4.56,5.07,7.38,8.37,7.93
				c-1.44-2.89-2.24-5.79-2.24-8.07C6.29,14.85,7.69,12.75,9.78,11.13z"/>
			<path class="st2" d="M12.17,19.83c0-1.6,0.84-2.93,2.32-3.87c-0.03-0.53-0.11-1.01-0.23-1.44c-1.84,1.04-3.15,2.51-3.15,4.54
				c0,1.34,0.54,3.04,1.52,4.74c0.19-0.29,0.36-0.62,0.51-0.95C12.52,21.76,12.17,20.69,12.17,19.83z"/>
			<path class="st2" d="M12.89,19.83c0,0.64,0.21,1.41,0.6,2.2c0.73-1.97,0.98-4.2,1.02-5.23C13.47,17.59,12.89,18.62,12.89,19.83z"
				/>
			<path class="st3" d="M23.58,29.02c-3.31,0-6.12-1.45-8.13-3.31c-0.37,0.15-0.74,0.32-1.1,0.5c2.31,2.7,5.71,4.9,9.76,4.9
				c1.96,0,3.59-0.35,4.9-1.03c-0.26-0.71-0.61-1.34-1.03-1.88C26.79,28.73,25.34,29.02,23.58,29.02z"/>
			<path class="st3" d="M10.49,28.91c-1.41,1.41-2.33,3.02-2.33,4.61c0,6.19,9.64,9.68,13.37,9.68c4.42,0,6.49-2.8,7.39-5.77
				c-1.34,0.33-2.64,0.44-3.76,0.44C18.98,37.87,13.84,33.78,10.49,28.91z"/>
			<path class="st3" d="M20.03,24.73c-1.24,0-2.56,0.26-3.85,0.7c1.87,1.62,4.42,2.86,7.4,2.86c1.57,0,2.85-0.24,3.91-0.66
				C25.15,25.21,21.47,24.73,20.03,24.73z"/>
			<path class="st3" d="M24.11,31.95c-4.37,0-8.03-2.42-10.49-5.36c-0.28,0.16-0.56,0.32-0.83,0.49c2.72,3.69,6.86,6.79,11.84,6.79
				c1.61,0,3.32-0.25,4.88-0.95c-0.01-0.74-0.1-1.41-0.26-2.03C27.65,31.68,25.82,31.95,24.11,31.95z"/>
			<path class="st3" d="M24.63,34.92c-5.33,0-9.77-3.32-12.67-7.28c-0.21,0.16-0.41,0.33-0.61,0.49c3.13,4.62,7.98,8.52,13.8,8.52
				c1.34,0,2.73-0.16,4.09-0.57c0.14-0.71,0.22-1.39,0.26-2.04C27.8,34.73,26.06,34.92,24.63,34.92z"/>
		</g>
	</g>
	<g>
		<g>
			<path class="st4" d="M117.02,0.38v8c0.69,0,1.14-0.56,1.14-1.57V0.38H117.02z M99.48,6.57c0.21,0.57,0.72,0.9,1.36,0.9h2.87v-0.9
				c0.21,0.57,0.72,0.9,1.36,0.9h0.65c0.48,0,0.75-0.08,1-0.28c0.21-0.17,0.47-0.67,0.58-1.09c-0.11,0.93,1.63,1.26,2.66,1.37
				c0.92,0.09,0.97-0.51,0.97-0.9c0.21,0.57,0.72,0.9,1.36,0.9h2.83V0.38h-1.14v6.19h-1.84c-0.78,0-1.21-0.48-1.21-1.27
				c0-1.44-0.31-2.77-1.63-2.77c-2.1,0-2.41,2.35-3.12,3.51c-0.2,0.32-0.36,0.53-0.9,0.53h-0.37c-0.79,0-1.21-0.48-1.21-1.27V0.38
				h-1.14v6.19h-1.89c-0.78,0-1.2-0.48-1.2-1.27V0.38h-1.14v6.19h-5.68c-1.68,0-1.41-1.35-0.59-2.29l-0.29-0.27
				c-1.25,1.03-1.96,2.44-0.92,3.2c0.24,0.18,0.5,0.26,1.05,0.26h7.58V6.57z M109.78,4.58v1.86c-1.06-0.14-1.8-0.44-2.27-0.97
				c0.13-0.41,0.21-0.71,0.36-1.13c0.26-0.77,0.59-1.48,1.23-1.31C109.57,3.15,109.78,3.82,109.78,4.58z M65.45,0.38v8
				c0.68,0,1.14-0.56,1.14-1.57V0.38H65.45z M59.31,7.47v-0.9c0.21,0.57,0.73,0.9,1.36,0.9h2.87V0.38h-1.14v6.19h-1.88
				c-0.78,0-1.21-0.48-1.21-1.27V0.38h-1.13v6.19h-1.87V6.11c0-1.87-1.2-3.42-2.89-2.16c-1.16,0.86-1.91,2.5-0.87,3.26
				c0.24,0.18,0.5,0.26,1.05,0.26H59.31z M55.08,6.56c-0.2,0-0.57,0.01-0.72,0.01c-1.68,0-1.48-1.63-0.54-2.35
				c0.83-0.65,1.27,0.39,1.27,1.74L55.08,6.56z M138.72,6.45c-1.07-0.14-1.8-0.45-2.27-0.97c0.13-0.41,0.21-0.71,0.36-1.14
				c0.26-0.76,0.59-1.48,1.24-1.31c0.47,0.12,0.68,0.78,0.68,1.55V6.45z M130.37,4.49l0.56-0.81c1.56,0.15,1.31,1.43,0.56,2.25
				C131.33,5.34,130.81,4.69,130.37,4.49z M125.91,6.56c-0.19,0-0.57,0-0.71,0c-1.68,0-1.48-1.63-0.54-2.36
				c0.83-0.65,1.27,0.39,1.27,1.74L125.91,6.56z M138.24,2.53c-2.1,0-2.41,2.35-3.12,3.51c-0.2,0.33-0.37,0.53-0.9,0.53h-2.31
				c0.69-0.65,1.6-2.25,0.9-3.04c-0.63-0.71-1.75-0.71-2.51-0.78l-1.18,1.73c1.09,0.51,1.49,1.09,1.83,2.08h-3.82V6.11
				c0-1.87-1.2-3.42-2.89-2.16c-1.16,0.86-1.91,2.5-0.87,3.26c0.24,0.18,0.5,0.26,1.05,0.26h5.69c0.55,0,0.89-0.09,1.11-0.32
				c0.2,0.22,0.57,0.32,1.12,0.32h2.3c0.48,0,0.75-0.08,1-0.28c0.21-0.17,0.47-0.67,0.58-1.09c-0.11,0.93,1.63,1.26,2.66,1.37
				c0.91,0.09,0.96-0.51,0.96-0.9l0.01-1.27C139.87,3.86,139.56,2.53,138.24,2.53z M83.89,6.57c-1.41,0-1.93-1.01-1.96-2.04
				c-0.03-1.18,1.14-1.57,2.91-1.06l0.13-0.34c-0.64-0.25-1.3-0.52-1.98-0.52c-1.58,0-2.32,0.78-2.32,2.04
				c0,0.87,0.32,1.51,0.9,1.91h-2.49c-0.78,0-1.2-0.48-1.2-1.27V4.17h-1.14v2.4h-2.51c-0.78,0-1.2-0.48-1.2-1.27V2.67h-1.14v3.9
				h-2.05c-0.57,0-0.51-0.34-0.29-0.65l-0.31-0.21c-0.72,0.77-0.58,1.75,0.71,1.75h3.08v-0.9c0.21,0.57,0.72,0.9,1.36,0.9h3.49v-0.9
				c0.21,0.57,0.72,0.9,1.36,0.9h6.02v-0.9H83.89z M149.5,4.72c-0.64-1.13-1.41-1.95-2.86-1.95l-0.08,0.42
				c2.28,0.39,1.16,1.83,3.09,3.37h-6.26V0.38h-1.14v5.51c0,1.02,0.46,1.57,1.14,1.57h8.43v-0.9C150.69,6.23,150.14,5.85,149.5,4.72
				z M77.61,9.57h-1.12V8.54h1.12V9.57z M126.61,2.16h-1.12V1.13h1.12V2.16z M124.9,2.16h-1.12V1.13h1.12V2.16z M148.83,9.57h-1.12
				V8.54h1.12V9.57z M93.06,3.43c0.75-0.29,1.28-0.32,2.01-0.08l0.6-0.74c-1.44-0.02-1.9-0.69-1.57-1.17
				c0.33-0.46,0.91-0.13,1.34,0.16l0.6-0.74c-0.75-0.51-1.52-0.57-2.24,0.33c-0.25,0.31-0.39,0.98,0.04,1.37
				C93.39,2.67,93,2.96,92.8,3.15L93.06,3.43z"/>
		</g>
		<g>
			<path class="st4" d="M103.06,17.74c-0.19,0-0.57,0.01-0.72,0.01c-1.68,0-1.48-1.62-0.54-2.35c0.83-0.65,1.26,0.39,1.26,1.74
				L103.06,17.74z M111.72,15.67l0.55-0.81c1.56,0.15,1.31,1.43,0.57,2.25C112.69,16.53,112.17,15.88,111.72,15.67z M120.53,11.56
				v6.19h-1.88c-0.78,0-1.21-0.48-1.21-1.27v-4.92h-1.14v6.19h-3.04c0.69-0.65,1.6-2.25,0.9-3.04c-0.63-0.71-1.75-0.71-2.5-0.78
				l-1.18,1.74c1.09,0.51,1.49,1.08,1.84,2.08h-3.83c-0.78,0-1.21-0.48-1.21-1.27v-4.92h-1.14v6.19h-1.87v-0.46
				c0-1.87-1.21-3.42-2.89-2.16c-1.16,0.86-1.91,2.5-0.87,3.26c0.25,0.18,0.5,0.26,1.05,0.26h1.35c-0.26,1.48-0.6,2.86-2.62,3.82
				l0.11,0.34c1.72-0.51,3.33-1.25,3.74-4.16h3.13v-0.9c0.21,0.57,0.72,0.9,1.36,0.9h2.82c0.55,0,0.89-0.09,1.11-0.32
				c0.2,0.22,0.57,0.32,1.12,0.32h3.73v-1.07c0,0.36,0.17,0.63,0.41,0.81c0.24,0.18,0.5,0.26,1.05,0.26h2.77v-7.09H120.53z
				 M86.1,17.75c-0.19,0-0.57,0.01-0.71,0.01c-1.68,0-1.48-1.63-0.54-2.35c0.83-0.65,1.27,0.39,1.27,1.74L86.1,17.75z M87.34,17.29
				c0.02-1.86-1.2-3.42-2.89-2.16c-1.15,0.86-1.91,2.5-0.87,3.26c0.25,0.18,0.5,0.26,1.05,0.26h1.35c-0.26,1.48-0.6,2.86-2.62,3.83
				l0.11,0.34c1.72-0.51,3.32-1.32,3.74-4.16C87.29,18.16,87.34,17.72,87.34,17.29z M56.32,17.75v-0.46c0-1.87-1.2-3.42-2.89-2.16
				c-1.15,0.86-1.9,2.5-0.86,3.26c0.24,0.18,0.5,0.26,1.05,0.26h5.95v-0.9c0.21,0.57,0.72,0.9,1.36,0.9h2.92v-0.9
				c0.21,0.57,0.72,0.9,1.36,0.9h3.68c0.89,0,0.97-0.51,0.97-0.9c0.21,0.57,0.72,0.9,1.36,0.9h2.98v-0.9
				c0.21,0.57,0.72,0.9,1.36,0.9h2.82v-7.09h-1.14v6.19H75.4c-0.79,0-1.21-0.48-1.21-1.27v-1.13h-1.14v2.4h-1.99
				c-0.78,0-1.13-0.61-1.22-1.22c-0.13-0.86-0.52-2.22-1.75-2.22c-0.7,0-1.75,0.46-1.5,1.63c0.16,0.8,0.88,1.4,1.5,1.8h-3.04
				c-0.79,0-1.21-0.48-1.21-1.27v-1.13H62.7v2.4h-1.94c-0.78,0-1.21-0.48-1.21-1.27v-1.13h-1.14v2.4H56.32z M67.52,15.38
				c1.18-0.7,1.5,1.66,1.5,2.37C67.5,16.92,66.87,15.77,67.52,15.38z M55.07,17.75c-0.19,0-0.57,0.01-0.71,0.01
				c-1.68,0-1.48-1.63-0.54-2.35c0.83-0.65,1.27,0.39,1.27,1.74L55.07,17.75z M55.77,13.34h-1.12v-1.02h1.12V13.34z M63.84,14.36
				h-1.12v-1.02h1.12V14.36z M54.06,13.34h-1.13v-1.02h1.13V13.34z M69.37,13.34h-1.12v-1.02h1.12V13.34z M67.66,13.34h-1.12v-1.02
				h1.12V13.34z M75.05,14.36h-1.12v-1.02h1.12V14.36z M73.34,14.36h-1.12v-1.02h1.12V14.36z M60.4,20.76h-1.12v-1.02h1.12V20.76z
				 M58.69,20.76h-1.13v-1.02h1.13V20.76z M97.13,17.62v-1.86c0-0.77-0.21-1.43-0.68-1.55c-0.65-0.17-0.98,0.55-1.23,1.31
				c-0.13,0.37-0.3,0.94-0.43,1.34C95.51,16.98,96.37,17.31,97.13,17.62z M96.65,13.71c1.32,0,1.63,1.33,1.63,2.77l0,1.27
				c0,0.39-0.12,1.25-0.97,0.9c-1.01-0.42-2.44-1.19-3.07-0.77c-0.42,0.28-0.36,0.7-0.36,1.61v2.16c0,1.01-0.46,1.57-1.14,1.57
				v-4.38c0-1.03,0.38-1.51,0.85-1.83c0.02-0.02,0.05-0.03,0.07-0.04C94.26,15.74,94.72,13.71,96.65,13.71z M80.42,11.56v8
				c0.68,0,1.14-0.56,1.14-1.57v-6.42H80.42z"/>
		</g>
		<g>
			<path class="st4" d="M56.94,26.6h0.95v0.88h-0.95V26.6z M56.98,28.47h0.88v4.16h-0.88V28.47z M59.27,28.47h0.89v0.99h0.01
				c0.14-0.3,0.55-1.08,1.46-1.08c0.73,0,1.05,0.61,1.05,1.21v3.04H61.8v-2.6c0-0.53-0.08-1-0.53-1c-0.87,0-1.12,1.37-1.12,1.88
				v1.72h-0.89V28.47z M67.29,32.52c0,1.17-0.38,2.09-2.05,2.09c-0.54,0-0.88-0.09-1.2-0.17v-0.87c0.28,0.17,0.77,0.51,1.34,0.51
				c0.93,0,1.03-0.65,1.03-1.56v-0.46h-0.02c-0.12,0.2-0.37,0.58-1.08,0.58c-1.1,0-1.57-0.9-1.57-2.13c0-1.18,0.36-2.13,1.57-2.13
				c0.68,0,0.97,0.5,1.08,0.78h0.02v-0.69h0.88V32.52z M65.54,32.13c0.77,0,0.84-0.89,0.84-1.57c0-0.69-0.11-1.62-0.84-1.62
				c-0.71,0-0.84,0.9-0.84,1.57C64.7,31.22,64.84,32.13,65.54,32.13z M72.58,26.6h1l2.02,6.04h-1l-0.55-1.79h-2.08l-0.55,1.79h-0.85
				L72.58,26.6z M72.15,30.27h1.72l-0.84-2.8h-0.02L72.15,30.27z M77.18,29.05h0.02c0.19-0.26,0.47-0.67,1.16-0.67
				c1.12,0,1.57,0.94,1.57,2.19c0,1.54-0.75,2.17-1.85,2.17c-1.63,0-1.78-1.09-1.78-2.17v-3.98h0.88V29.05z M78.08,32.37
				c0.71,0,0.89-0.95,0.89-1.8c0-0.73-0.17-1.69-0.89-1.69c-0.69,0-0.86,0.9-0.86,1.69C77.22,31.62,77.35,32.36,78.08,32.37z
				 M83.36,31.95h-0.02c-0.12,0.28-0.41,0.78-1.08,0.78c-1.2,0-1.57-0.98-1.57-2.18c0-1.25,0.47-2.18,1.57-2.18
				c0.71,0,0.96,0.45,1.08,0.67h0.02v-2.45h0.89v6.04h-0.89V31.95z M82.5,32.17c0.72,0,0.83-0.93,0.83-1.61
				c0-0.73-0.07-1.67-0.83-1.67c-0.69,0-0.84,0.94-0.84,1.67C81.65,31.24,81.79,32.17,82.5,32.17z M88.11,31.65H88.1
				c-0.14,0.31-0.54,1.09-1.46,1.09c-0.73,0-1.05-0.62-1.05-1.22v-3.04h0.88v2.61c0,0.52,0.08,1,0.53,1c0.87,0,1.12-1.37,1.12-1.89
				v-1.72h0.88v4.16h-0.89V31.65z M90.41,26.6h0.88v6.04h-0.88V26.6z M92.74,26.6h0.89v6.04h-0.89V26.6z M97.09,32.06h-0.02
				c-0.14,0.25-0.5,0.68-1.17,0.68c-0.66,0-1.14-0.46-1.14-1.04c0-1.29,1.78-1.34,2.33-1.37v-0.37c0-0.45,0-1.21-0.58-1.21
				c-0.55,0-0.64,0.42-0.67,0.91H94.9c0.04-0.62,0.29-1.28,1.6-1.28c1.35,0,1.47,0.76,1.47,1.57v2.69h-0.89V32.06z M97.09,30.68
				c-0.36,0.02-1.36,0.11-1.36,0.88c0,0.38,0.22,0.62,0.51,0.62c0.3,0,0.86-0.3,0.86-1.01V30.68z M99.32,26.6h0.88v2.86h0.02
				c0.14-0.3,0.54-1.08,1.46-1.08c0.73,0,1.05,0.61,1.05,1.21v3.05h-0.88v-2.6c0-0.53-0.08-1-0.53-1c-0.88,0-1.12,1.36-1.12,1.88
				v1.72h-0.88V26.6z M110.66,30.49c0,1.11-0.19,2.24-2.04,2.24c-1.87,0-2.05-1.14-2.05-2.24V26.6h0.96v3.89
				c0,0.96,0.07,1.72,1.09,1.72c1.02,0,1.08-0.76,1.08-1.72V26.6h0.96V30.49z M112,28.47h0.89v0.99h0.02
				c0.13-0.3,0.54-1.08,1.46-1.08c0.74,0,1.05,0.61,1.05,1.21v3.04h-0.88v-2.6c0-0.53-0.08-1-0.53-1c-0.87,0-1.12,1.37-1.12,1.88
				v1.72H112V28.47z M116.78,26.6h0.95v0.88h-0.95V26.6z M116.81,28.47h0.89v4.16h-0.89V28.47z M118.49,28.47h0.94l1.07,2.97h0.02
				l0.98-2.97h0.82l-1.47,4.16h-0.77L118.49,28.47z M126.05,32.5c-0.37,0.15-0.69,0.24-1.22,0.24c-1.15,0-2.08-0.68-2.08-2.36
				c0-1.16,0.47-2,1.77-2c1.35,0,1.6,0.9,1.6,1.71h-2.5c0,0.82,0.37,2.19,1.62,2.19c0.27,0,0.54-0.06,0.8-0.18V32.5z M125.26,29.68
				c0-0.32-0.11-0.94-0.77-0.94c-0.68,0-0.81,0.7-0.83,0.94H125.26z M127.17,28.47h0.88v1.06h0.02c0.28-0.56,0.59-1.1,1.35-1.15
				v0.91c-0.85,0.03-1.37,0.32-1.37,1.44v1.9h-0.88V28.47z M132.4,29.29c-0.29-0.2-0.63-0.41-1.05-0.41c-0.28,0-0.59,0.12-0.59,0.44
				c0,0.75,1.9,0.82,1.9,2.15c0,0.9-0.7,1.27-1.58,1.27c-0.54,0-0.9-0.12-1.11-0.19v-0.81c0.25,0.17,0.67,0.43,1.15,0.43
				c0.51,0,0.72-0.26,0.72-0.53c0-0.73-1.88-0.88-1.88-2.07c0-0.63,0.41-1.2,1.45-1.2c0.45,0,0.84,0.12,0.98,0.17V29.29z
				 M133.6,26.6h0.95v0.88h-0.95V26.6z M133.63,28.47h0.88v4.16h-0.88V28.47z M138.12,32.67c-0.18,0.05-0.41,0.07-0.61,0.07
				c-0.83,0-1.31-0.26-1.31-1.06v-2.75h-0.67v-0.45h0.67v-0.98l0.88-0.54v1.51h1.14v0.45h-1.14v2.4c0,0.61,0.06,0.91,0.63,0.91
				c0.14,0,0.29-0.02,0.41-0.07V32.67z M140.04,32.68l-1.6-4.21h0.92l1.09,2.98h0.02l0.98-2.98h0.83l-2.15,6.04h-0.71L140.04,32.68z
				 M144.34,30.56c0-1.41,0.61-2.18,1.83-2.18c1.23,0,1.85,0.77,1.85,2.18c0,1.41-0.62,2.18-1.85,2.18
				C144.95,32.74,144.34,31.97,144.34,30.56z M146.17,32.37c0.79,0,0.89-1.05,0.89-1.81c0-0.76-0.1-1.82-0.89-1.82
				c-0.77,0-0.87,1.05-0.87,1.82C145.3,31.32,145.4,32.37,146.17,32.37z M149.39,28.92h-0.73v-0.45h0.73v-0.39
				c0-0.77,0.18-1.58,1.58-1.58c0.36,0,0.68,0.05,0.89,0.1v0.6c-0.18-0.08-0.42-0.19-0.78-0.19c-0.72,0-0.8,0.52-0.8,0.96v0.5h1.18
				v0.45h-1.18v3.71h-0.89V28.92z M52.06,26.6h0.96v2.67h0.02l1.98-2.67h0.97l-2.13,2.76l2.36,3.28h-1.14l-2.04-2.93h-0.02v2.93
				h-0.96V26.6z"/>
		</g>
		<g>
			<path class="st4" d="M59.7,42.92c-0.36,0.13-0.73,0.21-1.11,0.21c-1.32,0-2.09-0.79-2.09-2.34c0-1.24,0.57-2.01,1.77-2.01
				c1.12,0,1.5,0.6,1.5,1.45h-0.93c0-0.5-0.05-1.08-0.61-1.08c-0.51,0-0.77,0.59-0.77,1.34c0,1.02,0.43,2.18,1.5,2.18
				c0.25,0,0.5-0.06,0.74-0.16V42.92z M60.6,37h0.95v0.87H60.6V37z M60.64,38.86h0.88v4.17h-0.88V38.86z M65.93,42.89
				c-0.37,0.15-0.7,0.23-1.22,0.23c-1.15,0-2.08-0.68-2.08-2.36c0-1.15,0.46-2,1.77-2c1.35,0,1.6,0.9,1.6,1.71h-2.49
				c0,0.82,0.37,2.19,1.62,2.19c0.27,0,0.53-0.05,0.8-0.18V42.89z M65.14,40.07c0-0.32-0.12-0.93-0.77-0.93
				c-0.69,0-0.82,0.7-0.83,0.93H65.14z M67.04,38.86h0.89v0.99h0.02c0.14-0.3,0.54-1.09,1.46-1.09c0.74,0,1.05,0.62,1.05,1.22v3.04
				h-0.89v-2.61c0-0.53-0.08-1-0.52-1c-0.88,0-1.12,1.37-1.12,1.88v1.73h-0.89V38.86z M74.71,42.92c-0.36,0.13-0.74,0.21-1.11,0.21
				c-1.32,0-2.09-0.79-2.09-2.34c0-1.24,0.57-2.01,1.77-2.01c1.12,0,1.49,0.6,1.49,1.45h-0.92c0-0.5-0.05-1.08-0.61-1.08
				c-0.5,0-0.77,0.59-0.77,1.34c0,1.02,0.43,2.18,1.5,2.18c0.25,0,0.5-0.06,0.74-0.16V42.92z M78.59,42.89
				c-0.37,0.15-0.69,0.23-1.22,0.23c-1.15,0-2.08-0.68-2.08-2.36c0-1.15,0.47-2,1.78-2c1.35,0,1.6,0.9,1.6,1.71h-2.5
				c0,0.82,0.37,2.19,1.62,2.19c0.27,0,0.53-0.05,0.79-0.18V42.89z M77.8,40.07c0-0.32-0.11-0.93-0.76-0.93
				c-0.68,0-0.82,0.7-0.83,0.93H77.8z M84.26,42.46h-0.02c-0.14,0.24-0.5,0.67-1.17,0.67c-0.66,0-1.14-0.46-1.14-1.04
				c0-1.29,1.78-1.36,2.33-1.38v-0.37c0-0.46,0-1.21-0.59-1.21c-0.54,0-0.64,0.42-0.67,0.92h-0.93c0.04-0.63,0.29-1.28,1.6-1.28
				c1.36,0,1.47,0.76,1.47,1.58v2.68h-0.89V42.46z M84.26,41.08c-0.37,0.03-1.36,0.1-1.36,0.87c0,0.38,0.22,0.62,0.51,0.62
				c0.31,0,0.85-0.3,0.85-1V41.08z M86.49,38.86h0.88v0.99h0.02c0.14-0.3,0.54-1.09,1.46-1.09c0.73,0,1.05,0.62,1.05,1.22v3.04
				h-0.89v-2.61c0-0.53-0.08-1-0.52-1c-0.88,0-1.13,1.37-1.13,1.88v1.73h-0.88V38.86z M93.63,42.35h-0.02
				c-0.12,0.28-0.41,0.77-1.09,0.77c-1.2,0-1.56-0.98-1.56-2.17c0-1.25,0.46-2.18,1.56-2.18c0.71,0,0.97,0.45,1.09,0.68h0.02V37
				h0.89v6.04h-0.89V42.35z M92.77,42.57c0.73,0,0.83-0.93,0.83-1.62c0-0.73-0.07-1.67-0.83-1.67c-0.69,0-0.84,0.95-0.84,1.67
				C91.92,41.64,92.05,42.57,92.77,42.57z M99.17,37.57h-1.47V37h3.89v0.57h-1.46v5.46h-0.96V37.57z M104.96,42.89
				c-0.37,0.15-0.69,0.23-1.22,0.23c-1.15,0-2.08-0.68-2.08-2.36c0-1.15,0.46-2,1.78-2c1.35,0,1.6,0.9,1.6,1.71h-2.49
				c0,0.82,0.36,2.19,1.61,2.19c0.27,0,0.54-0.05,0.8-0.18V42.89z M104.18,40.07c0-0.32-0.11-0.93-0.77-0.93
				c-0.68,0-0.82,0.7-0.83,0.93H104.18z M108.98,42.92c-0.36,0.13-0.73,0.21-1.11,0.21c-1.32,0-2.09-0.79-2.09-2.34
				c0-1.24,0.57-2.01,1.77-2.01c1.12,0,1.5,0.6,1.5,1.45h-0.93c0-0.5-0.05-1.08-0.6-1.08c-0.51,0-0.77,0.59-0.77,1.34
				c0,1.02,0.43,2.18,1.5,2.18c0.25,0,0.5-0.06,0.74-0.16V42.92z M109.88,37h0.88v2.86h0.02c0.14-0.3,0.54-1.08,1.46-1.08
				c0.73,0,1.05,0.62,1.05,1.22v3.04h-0.89v-2.61c0-0.53-0.08-1-0.52-1c-0.88,0-1.12,1.37-1.12,1.88v1.73h-0.88V37z M114.64,38.86
				h0.89v0.99h0.02c0.14-0.3,0.54-1.09,1.46-1.09c0.73,0,1.05,0.62,1.05,1.22v3.04h-0.89v-2.61c0-0.53-0.08-1-0.52-1
				c-0.88,0-1.12,1.37-1.12,1.88v1.73h-0.89V38.86z M119.12,40.95c0-1.41,0.61-2.18,1.83-2.18c1.23,0,1.85,0.77,1.85,2.18
				c0,1.41-0.62,2.17-1.85,2.17C119.72,43.13,119.12,42.36,119.12,40.95z M120.95,42.77c0.79,0,0.88-1.05,0.88-1.81
				c0-0.77-0.09-1.81-0.88-1.81c-0.78,0-0.88,1.05-0.88,1.81C120.07,41.71,120.17,42.77,120.95,42.77z M123.9,37h0.88v6.04h-0.88V37
				z M125.9,40.95c0-1.41,0.61-2.18,1.83-2.18c1.23,0,1.85,0.77,1.85,2.18c0,1.41-0.62,2.17-1.85,2.17
				C126.51,43.13,125.9,42.36,125.9,40.95z M127.73,42.77c0.79,0,0.89-1.05,0.89-1.81c0-0.77-0.1-1.81-0.89-1.81
				c-0.78,0-0.88,1.05-0.88,1.81C126.86,41.71,126.96,42.77,127.73,42.77z M133.89,42.91c0,1.17-0.38,2.09-2.05,2.09
				c-0.54,0-0.88-0.09-1.2-0.16v-0.87c0.28,0.17,0.77,0.51,1.34,0.51c0.93,0,1.03-0.65,1.03-1.57v-0.45h-0.01
				c-0.12,0.2-0.37,0.58-1.09,0.58c-1.1,0-1.56-0.9-1.56-2.13c0-1.18,0.36-2.13,1.56-2.13c0.68,0,0.98,0.5,1.09,0.78h0.01v-0.69
				h0.88V42.91z M132.14,42.53c0.77,0,0.84-0.88,0.84-1.58c0-0.69-0.1-1.62-0.84-1.62c-0.71,0-0.84,0.9-0.84,1.57
				C131.3,41.61,131.44,42.53,132.14,42.53z M136.22,43.08l-1.6-4.21h0.92l1.09,2.98h0.02l0.98-2.98h0.83l-2.14,6.04h-0.71
				L136.22,43.08z M55.43,37.89c-0.22-0.12-0.84-0.41-1.5-0.41c-0.53,0-0.91,0.3-0.91,0.76c0,1.27,2.85,1.24,2.85,3.13
				c0,1.27-0.98,1.76-2.19,1.76c-0.68,0-1.35-0.15-1.54-0.23v-0.93c0.28,0.15,0.97,0.52,1.68,0.52c0.63,0,1.09-0.26,1.09-0.87
				c0-1.38-2.85-1.3-2.85-3.18c0-0.98,0.73-1.55,1.97-1.55c0.56,0,1.16,0.11,1.4,0.16V37.89z"/>
		</g>
	</g>
</g>
</svg>