<svg width="20" height="20" viewBox="0 0 20 20" fill="none" xmlns="http://www.w3.org/2000/svg">
<g clip-path="url(#clip0_811773_32)">
<path d="M8.86702 0.0498047C8.56841 1.05515 8.008 1.35377 7.61631 1.7813C6.37206 3.14051 5.67529 4.54203 6.28148 6.50943C6.90361 8.53008 4.48977 11.6586 2.34967 11.8811C1.42445 11.9771 0.830195 11.4869 0.463889 10.701C-0.336409 8.98299 0.00302172 7.37791 1.08054 5.91319C3.01957 3.27738 5.76089 1.70017 8.86702 0.0498047Z" fill="white"/>
<path d="M19.9328 5.60461C18.4695 9.03873 16.7475 12.2414 13.3104 14.056C12.9128 14.2668 12.4749 14.3908 12.0258 14.4198C10.7502 14.4835 9.44628 14.396 8.74104 13.1363C8.08806 11.9722 8.84655 10.9877 9.53736 10.1571C10.8378 8.58682 12.3713 7.50532 14.5985 8.34096C15.8741 8.81974 16.9297 8.19912 17.8833 7.44162C18.5985 6.87175 19.2509 6.21977 19.9328 5.60461Z" fill="white"/>
<path d="M3.2475 19.0862C1.0646 18.2152 0.771954 17.4085 1.43091 15.3002C2.02516 13.398 3.01309 12.0488 5.07406 11.667C6.53281 11.3958 7.60585 12.1971 7.50681 13.6713C7.41474 15.0399 6.99119 16.2483 5.59117 16.9705C4.65052 17.4533 3.26841 17.5538 3.2475 19.0862Z" fill="white"/>
<path d="M11.0344 6.66124C8.42297 6.51591 8.20199 6.173 9.05156 3.99507C10.1689 1.12982 11.7635 0.603757 14.3769 2.25313C14.714 2.4655 15.0254 2.716 15.3051 2.99968C16.8007 4.52462 16.5992 5.30053 14.573 5.99831C13.3343 6.42732 12.0671 6.64233 11.0344 6.66124Z" fill="white"/>
</g>
<defs>
<clipPath id="clip0_811773_32">
<rect width="20" height="19.1231" fill="white"/>
</clipPath>
</defs>
</svg>
