<?xml version="1.0" encoding="utf-8"?>
<!-- Generator: Adobe Illustrator 26.0.0, SVG Export Plug-In . SVG Version: 6.00 Build 0)  -->
<svg version="1.1" id="Calque_1" xmlns="http://www.w3.org/2000/svg" xmlns:xlink="http://www.w3.org/1999/xlink" x="0px" y="0px"
	 viewBox="0 0 268.11 45" style="enable-background:new 0 0 268.11 45;" xml:space="preserve">
<style type="text/css">
	.st0{fill:#89765D;}
	.st1{fill:#EE8D03;}
	.st2{fill:#F0B802;}
	.st3{fill:#D2CD0A;}
	.st4{fill:#08A0A8;}
</style>
<g>
	<g>
		<path class="st0" d="M163.56,9.25c0.06-0.54,0.1-1.28,0.13-2.24c0.03-0.96,0.05-1.86,0.05-2.71c0-2-0.09-3.23-0.28-3.69
			c0.32-0.07,0.61-0.1,0.89-0.1c0.28,0,0.61,0.03,0.97,0.1c-0.1,1.17-0.16,2.58-0.18,4.23c1.24-1.32,2.06-2.28,2.48-2.86
			c0.42-0.59,0.63-1.01,0.63-1.29c0.64-0.12,1.33-0.18,2.05-0.18c-0.81,0.77-1.94,1.96-3.39,3.59c1.68,2.69,2.93,4.32,3.72,4.9
			c-0.3,0.13-0.6,0.22-0.91,0.27c-0.31,0.05-0.67,0.07-1.07,0.07c-0.51-0.86-1.44-2.23-2.77-4.1l-0.33,0.38
			c-0.17,0.22-0.31,0.38-0.41,0.48c0.02,1.67,0.11,2.72,0.26,3.15c-0.3,0.07-0.6,0.1-0.92,0.1C164.22,9.35,163.91,9.31,163.56,9.25z
			"/>
		<path class="st0" d="M177.01,9.21l-0.76-2.13c-0.51-0.04-1.15-0.07-1.92-0.07c-0.81,0-1.36,0.03-1.66,0.08
			c-0.24,0.63-0.49,1.34-0.76,2.12c-0.2,0.07-0.38,0.1-0.54,0.1c-0.22,0-0.44-0.03-0.67-0.1c0.31-0.55,0.85-1.84,1.62-3.87
			c0.78-2.03,1.36-3.62,1.74-4.77c0.3-0.05,0.53-0.08,0.72-0.08c0.2,0,0.41,0.03,0.66,0.08c0.38,1.15,0.96,2.74,1.74,4.77
			c0.78,2.03,1.32,3.32,1.62,3.87c-0.27,0.08-0.56,0.11-0.87,0.11C177.66,9.33,177.35,9.29,177.01,9.21z M175.9,6.1
			c-0.53-1.47-1.01-2.68-1.43-3.66c-0.39,0.91-0.86,2.12-1.39,3.62c0.56,0.03,1.19,0.05,1.89,0.05
			C175.41,6.11,175.72,6.11,175.9,6.1z"/>
		<path class="st0" d="M180.85,8.45c-0.55-0.58-0.82-1.41-0.82-2.48c0-1.13-0.02-2.22-0.07-3.28s-0.11-1.76-0.2-2.08
			c0.28-0.07,0.57-0.1,0.87-0.1c0.28,0,0.61,0.03,0.97,0.1c-0.07,1.6-0.1,3.4-0.1,5.41c0,1.5,0.66,2.25,1.97,2.25
			c1.39,0,2.08-0.68,2.08-2.03c0-3.09-0.04-4.97-0.13-5.63c0.21-0.07,0.41-0.1,0.62-0.1c0.19,0,0.41,0.03,0.67,0.1
			c-0.03,0.62-0.06,1.46-0.09,2.51c-0.03,1.05-0.04,1.97-0.04,2.77c0,1.01-0.26,1.83-0.79,2.48c-0.52,0.65-1.41,0.97-2.66,0.97
			C182.16,9.33,181.4,9.04,180.85,8.45z"/>
		<path class="st0" d="M188.2,8.84c0-0.23,0.02-0.43,0.07-0.61c0.04-0.17,0.11-0.36,0.21-0.54c0.25,0.26,0.6,0.47,1.03,0.61
			c0.44,0.15,0.91,0.22,1.43,0.22c0.59,0,1.04-0.11,1.35-0.34c0.31-0.23,0.47-0.56,0.47-0.98c0-0.36-0.15-0.66-0.46-0.9
			c-0.31-0.24-0.78-0.52-1.43-0.84c-0.57-0.3-1.02-0.55-1.35-0.76c-0.33-0.21-0.62-0.49-0.86-0.84c-0.24-0.34-0.36-0.75-0.36-1.22
			c0-0.63,0.3-1.15,0.89-1.54c0.6-0.39,1.4-0.59,2.4-0.59c0.91,0,1.68,0.13,2.31,0.39c0,0.24-0.04,0.51-0.13,0.82
			c-0.09,0.31-0.19,0.55-0.31,0.72c-0.46-0.33-0.93-0.6-1.42-0.82c-0.49-0.22-0.88-0.33-1.19-0.33c-0.23,0.04-0.45,0.18-0.67,0.39
			c-0.22,0.22-0.33,0.48-0.33,0.79c0,0.39,0.16,0.72,0.48,0.97c0.32,0.25,0.8,0.54,1.46,0.87c0.55,0.27,0.98,0.51,1.31,0.72
			c0.33,0.21,0.61,0.48,0.85,0.8c0.23,0.33,0.35,0.72,0.35,1.16c0,0.78-0.27,1.37-0.81,1.8c-0.54,0.42-1.35,0.63-2.44,0.63
			C189.96,9.43,189,9.23,188.2,8.84z"/>
		<path class="st0" d="M197.69,9.25c0.04-0.53,0.08-1.25,0.11-2.19s0.05-1.85,0.05-2.73c0-0.96-0.03-1.78-0.08-2.46
			c-1.33,0.01-2.2,0.08-2.59,0.21c-0.06-0.24-0.08-0.47-0.08-0.69c0-0.19,0.03-0.44,0.08-0.77c0.43,0.04,1.01,0.08,1.74,0.11
			c0.73,0.03,1.44,0.04,2.12,0.04c1.56,0,2.54-0.07,2.92-0.21c0.05,0.25,0.08,0.49,0.08,0.71c0,0.17-0.03,0.43-0.08,0.75
			c-0.65-0.05-1.51-0.1-2.59-0.13c-0.07,1.4-0.1,2.61-0.1,3.64c0,2,0.09,3.24,0.26,3.72c-0.33,0.07-0.63,0.1-0.9,0.1
			S198.04,9.31,197.69,9.25z"/>
		<path class="st0" d="M163.07,25.24c0-0.23,0.02-0.43,0.07-0.61c0.04-0.17,0.11-0.36,0.21-0.54c0.25,0.26,0.6,0.47,1.03,0.61
			c0.44,0.15,0.91,0.22,1.43,0.22c0.59,0,1.04-0.11,1.35-0.34c0.31-0.23,0.47-0.56,0.47-0.98c0-0.36-0.15-0.66-0.46-0.9
			c-0.31-0.24-0.78-0.52-1.43-0.84c-0.57-0.3-1.02-0.55-1.35-0.76c-0.33-0.21-0.62-0.49-0.86-0.84c-0.24-0.34-0.36-0.75-0.36-1.22
			c0-0.63,0.3-1.15,0.89-1.54c0.6-0.39,1.4-0.59,2.4-0.59c0.91,0,1.68,0.13,2.31,0.39c0,0.24-0.04,0.51-0.13,0.82
			c-0.09,0.31-0.19,0.55-0.31,0.72c-0.46-0.33-0.93-0.6-1.42-0.82c-0.49-0.22-0.88-0.33-1.19-0.33c-0.23,0.04-0.45,0.18-0.67,0.39
			c-0.22,0.22-0.33,0.48-0.33,0.79c0,0.39,0.16,0.72,0.48,0.97c0.32,0.25,0.8,0.54,1.46,0.87c0.55,0.27,0.98,0.51,1.31,0.72
			c0.33,0.21,0.61,0.48,0.85,0.8c0.23,0.33,0.35,0.72,0.35,1.16c0,0.78-0.27,1.37-0.81,1.8c-0.54,0.42-1.35,0.63-2.44,0.63
			C164.83,25.83,163.88,25.63,163.07,25.24z"/>
		<path class="st0" d="M171.09,23.56l0.03-1.03l0.03-1.1c0-1.07-0.1-1.84-0.31-2.3c0.53-0.22,1.14-0.33,1.8-0.33
			c-0.07,1.33-0.1,2.87-0.1,4.59c0,0.44,0.09,0.76,0.28,0.96c0.19,0.2,0.49,0.3,0.9,0.3c0.53,0,1.02-0.13,1.46-0.38
			c0-0.73,0.02-1.38,0.05-1.95l0.02-0.9c0-1.07-0.1-1.84-0.31-2.3c0.54-0.22,1.14-0.33,1.82-0.33c-0.04,0.75-0.09,1.65-0.13,2.68
			c-0.04,1.03-0.07,1.72-0.07,2.07c0,0.39,0.04,0.71,0.13,0.93c0.09,0.23,0.26,0.48,0.51,0.74c-0.39,0.33-0.83,0.52-1.31,0.59
			c-0.33-0.23-0.54-0.56-0.64-0.98c-0.3,0.31-0.64,0.55-1.04,0.72c-0.4,0.17-0.81,0.26-1.24,0.26
			C171.72,25.83,171.09,25.07,171.09,23.56z"/>
		<path class="st0" d="M179.36,25.89c0.04-1.17,0.06-2.42,0.06-3.74c0-0.6-0.02-1.06-0.06-1.38c-0.04-0.32-0.1-0.57-0.18-0.75
			c-0.08-0.19-0.22-0.38-0.4-0.57c0.17-0.2,0.37-0.34,0.57-0.44c0.21-0.1,0.39-0.15,0.56-0.15c0.48,0,0.77,0.28,0.87,0.85
			c0.3-0.26,0.62-0.47,0.98-0.61c0.36-0.15,0.72-0.22,1.08-0.22c0.9,0,1.57,0.28,2.03,0.84c0.46,0.56,0.69,1.38,0.69,2.46
			c0,1.14-0.3,2.03-0.89,2.66c-0.6,0.64-1.43,0.96-2.5,0.96c-0.56,0-1.03-0.1-1.41-0.31c0.03,1.19,0.12,2.12,0.28,2.79
			c-0.54,0.22-1.14,0.33-1.82,0.33C179.28,27.96,179.33,27.06,179.36,25.89z M183.51,24.45c0.33-0.4,0.49-0.97,0.49-1.71
			c0-0.68-0.14-1.26-0.41-1.76c-0.27-0.5-0.65-0.83-1.12-1.01c-0.27,0-0.56,0.04-0.85,0.11s-0.56,0.17-0.8,0.3
			c0,0.19-0.01,0.51-0.03,0.97c-0.03,1.41-0.05,2.23-0.05,2.46v0.56c0.18,0.22,0.39,0.39,0.63,0.51s0.5,0.18,0.76,0.18
			C182.72,25.06,183.18,24.85,183.51,24.45z"/>
		<path class="st0" d="M187.75,24.97c-0.47-0.57-0.7-1.39-0.7-2.45c0-0.72,0.14-1.36,0.43-1.93s0.68-1,1.19-1.32
			c0.51-0.32,1.09-0.48,1.75-0.48c0.87,0,1.54,0.29,1.99,0.86c0.45,0.57,0.68,1.42,0.68,2.53c-0.58,0.14-1.28,0.27-2.1,0.37
			c-0.82,0.1-1.63,0.17-2.43,0.19c0.07,0.67,0.25,1.15,0.55,1.45c0.3,0.3,0.74,0.45,1.32,0.45c0.45,0,0.87-0.05,1.27-0.16
			c0.4-0.1,0.74-0.25,1.03-0.43l0.11,0.31c-0.34,0.44-0.79,0.79-1.35,1.06c-0.56,0.27-1.14,0.4-1.73,0.4
			C188.88,25.83,188.21,25.54,187.75,24.97z M190.13,21.95c0.52-0.13,0.94-0.26,1.25-0.42c-0.01-0.58-0.18-1.06-0.5-1.43
			c-0.32-0.37-0.74-0.56-1.24-0.56c-0.34,0.2-0.61,0.54-0.81,1.02c-0.2,0.48-0.3,1.03-0.3,1.66
			C189.07,22.16,189.61,22.07,190.13,21.95z"/>
		<path class="st0" d="M195.43,25.65c0.08-1.09,0.11-2.26,0.11-3.49c0-0.6-0.02-1.06-0.06-1.38c-0.04-0.32-0.1-0.57-0.18-0.75
			c-0.08-0.19-0.22-0.38-0.4-0.57c0.17-0.2,0.37-0.34,0.57-0.44c0.21-0.1,0.39-0.15,0.56-0.15c0.62,0,0.95,0.4,0.98,1.21
			c0.28-0.35,0.59-0.64,0.91-0.86c0.32-0.22,0.69-0.39,1.11-0.5c0.08,0.17,0.14,0.43,0.2,0.75c0.06,0.33,0.09,0.63,0.09,0.9
			c-0.13-0.02-0.32-0.03-0.56-0.03c-0.35,0-0.68,0.04-1,0.12c-0.32,0.08-0.57,0.18-0.77,0.3l-0.02,0.51
			c-0.02,0.72-0.03,1.36-0.03,1.92c0,1.15,0.11,1.97,0.33,2.46c-0.33,0.07-0.63,0.1-0.9,0.1C196.11,25.75,195.79,25.71,195.43,25.65
			z"/>
		<path class="st0" d="M200.83,24.97c-0.48-0.57-0.72-1.39-0.72-2.45c0-0.72,0.15-1.36,0.44-1.93c0.29-0.56,0.7-1,1.22-1.32
			c0.52-0.32,1.12-0.48,1.79-0.48c0.77,0,1.42,0.13,1.95,0.39c0,0.19-0.05,0.42-0.16,0.71c-0.1,0.29-0.22,0.54-0.35,0.75
			c-0.44-0.37-0.85-0.66-1.25-0.86c-0.39-0.2-0.72-0.3-0.98-0.3c-0.33,0.19-0.6,0.52-0.82,0.99c-0.22,0.48-0.33,1-0.33,1.57
			c0,0.94,0.15,1.61,0.45,2.02c0.3,0.4,0.8,0.61,1.5,0.61c0.8,0,1.48-0.2,2.03-0.61l0.13,0.28c-0.32,0.45-0.74,0.81-1.26,1.08
			c-0.53,0.27-1.06,0.41-1.59,0.41C201.99,25.83,201.31,25.54,200.83,24.97z"/>
		<path class="st0" d="M207.68,24.91c-0.55-0.61-0.82-1.42-0.82-2.41c0-0.72,0.15-1.36,0.45-1.93c0.3-0.56,0.72-1,1.26-1.31
			c0.54-0.31,1.16-0.47,1.85-0.47c0.61,0,1.15,0.14,1.62,0.42c0.47,0.28,0.83,0.67,1.09,1.17c0.26,0.5,0.39,1.08,0.39,1.74
			c0,0.72-0.16,1.36-0.47,1.93c-0.31,0.56-0.75,1-1.3,1.31c-0.56,0.31-1.19,0.47-1.9,0.47C208.95,25.83,208.23,25.52,207.68,24.91z
			 M211.6,24.51c0.35-0.42,0.53-1.01,0.53-1.78c0-0.68-0.16-1.26-0.48-1.76c-0.32-0.49-0.76-0.83-1.31-1
			c-0.63,0-1.14,0.22-1.52,0.65c-0.38,0.43-0.57,1.01-0.57,1.75c0,0.85,0.18,1.53,0.53,2.03c0.35,0.5,0.81,0.75,1.35,0.75
			C210.76,25.14,211.25,24.93,211.6,24.51z"/>
		<path class="st0" d="M215.78,25.65c0.08-1.09,0.11-2.26,0.11-3.49c0-0.6-0.02-1.06-0.06-1.38c-0.04-0.32-0.1-0.57-0.18-0.75
			c-0.08-0.19-0.22-0.38-0.4-0.57c0.17-0.21,0.36-0.36,0.56-0.45c0.2-0.09,0.38-0.14,0.54-0.14c0.57,0,0.9,0.32,0.98,0.97
			c0.28-0.32,0.62-0.57,1-0.75c0.38-0.19,0.77-0.28,1.15-0.28c0.93,0,1.51,0.39,1.76,1.18c0.28-0.37,0.63-0.66,1.03-0.87
			c0.4-0.21,0.81-0.31,1.23-0.31c1.27,0,1.9,0.75,1.9,2.26l-0.03,1.03c-0.03,0.4-0.05,0.77-0.05,1.1c0,1.13,0.11,1.95,0.34,2.46
			c-0.31,0.07-0.6,0.1-0.87,0.1c-0.27,0-0.6-0.03-0.98-0.1c0.08-1.32,0.11-2.76,0.11-4.3c0-0.44-0.09-0.75-0.26-0.94
			c-0.18-0.19-0.47-0.29-0.87-0.29c-0.55,0-1.03,0.13-1.44,0.38c0.01,0.4,0.01,1.01-0.02,1.8c-0.01,0.23-0.02,0.53-0.02,0.89
			c0,1.14,0.1,1.96,0.31,2.46c-0.3,0.07-0.58,0.1-0.85,0.1c-0.27,0-0.6-0.03-0.98-0.1c0.08-1.32,0.11-2.76,0.11-4.3
			c0-0.44-0.09-0.75-0.26-0.94c-0.17-0.19-0.46-0.29-0.87-0.29c-0.56,0-1.03,0.13-1.41,0.38l-0.02,0.71
			c-0.03,0.56-0.05,1.22-0.05,1.98c0,1.15,0.11,1.97,0.33,2.46c-0.33,0.07-0.64,0.1-0.93,0.1
			C216.47,25.75,216.16,25.71,215.78,25.65z"/>
		<path class="st0" d="M228.17,25.89c0.04-1.17,0.06-2.42,0.06-3.74c0-0.6-0.02-1.06-0.06-1.38c-0.04-0.32-0.1-0.57-0.18-0.75
			c-0.08-0.19-0.22-0.38-0.4-0.57c0.17-0.2,0.37-0.34,0.57-0.44c0.21-0.1,0.39-0.15,0.56-0.15c0.48,0,0.77,0.28,0.87,0.85
			c0.3-0.26,0.62-0.47,0.98-0.61c0.36-0.15,0.72-0.22,1.08-0.22c0.9,0,1.57,0.28,2.03,0.84c0.46,0.56,0.69,1.38,0.69,2.46
			c0,1.14-0.3,2.03-0.89,2.66c-0.6,0.64-1.43,0.96-2.5,0.96c-0.56,0-1.03-0.1-1.41-0.31c0.03,1.19,0.12,2.12,0.28,2.79
			c-0.54,0.22-1.14,0.33-1.82,0.33C228.09,27.96,228.13,27.06,228.17,25.89z M232.31,24.45c0.33-0.4,0.49-0.97,0.49-1.71
			c0-0.68-0.14-1.26-0.41-1.76c-0.27-0.5-0.65-0.83-1.12-1.01c-0.27,0-0.56,0.04-0.85,0.11s-0.56,0.17-0.8,0.3
			c0,0.19-0.01,0.51-0.03,0.97c-0.03,1.41-0.05,2.23-0.05,2.46v0.56c0.18,0.22,0.39,0.39,0.63,0.51s0.5,0.18,0.76,0.18
			C231.53,25.06,231.98,24.85,232.31,24.45z"/>
		<path class="st0" d="M236.45,23.56l0.03-1.03l0.03-1.1c0-1.07-0.1-1.84-0.31-2.3c0.53-0.22,1.14-0.33,1.8-0.33
			c-0.07,1.33-0.1,2.87-0.1,4.59c0,0.44,0.09,0.76,0.28,0.96c0.19,0.2,0.49,0.3,0.9,0.3c0.53,0,1.02-0.13,1.46-0.38
			c0-0.73,0.02-1.38,0.05-1.95l0.02-0.9c0-1.07-0.1-1.84-0.31-2.3c0.54-0.22,1.14-0.33,1.82-0.33c-0.04,0.75-0.09,1.65-0.13,2.68
			c-0.04,1.03-0.07,1.72-0.07,2.07c0,0.39,0.04,0.71,0.13,0.93c0.09,0.23,0.26,0.48,0.51,0.74c-0.39,0.33-0.83,0.52-1.31,0.59
			c-0.33-0.23-0.54-0.56-0.64-0.98c-0.3,0.31-0.64,0.55-1.04,0.72c-0.4,0.17-0.81,0.26-1.24,0.26
			C237.07,25.83,236.45,25.07,236.45,23.56z"/>
		<path class="st0" d="M245.11,25.51c-0.15-0.19-0.23-0.53-0.23-1.01c0-0.34,0.01-0.89,0.03-1.66c0.02-0.83,0.03-1.52,0.03-2.07
			c0-0.26-0.01-0.51-0.03-0.75c-0.44,0-0.73-0.03-0.88-0.09c-0.15-0.06-0.22-0.17-0.22-0.32c0.71-0.4,1.38-0.96,2.02-1.66l0.39,0.05
			c0.04,0.37,0.07,0.75,0.08,1.15c0.73-0.01,1.27-0.05,1.61-0.13c0,0.23-0.02,0.43-0.07,0.61c-0.04,0.18-0.11,0.36-0.21,0.54
			c-0.32-0.12-0.77-0.19-1.36-0.2c-0.03,0.49-0.05,1.01-0.05,1.54c0,1.35,0.08,2.37,0.25,3.07c0.5-0.03,0.91-0.09,1.21-0.18
			l0.1,0.38c-0.2,0.31-0.47,0.55-0.82,0.74c-0.35,0.19-0.7,0.28-1.05,0.28C245.53,25.79,245.26,25.7,245.11,25.51z"/>
		<path class="st0" d="M249.22,16.76c0.33-0.4,0.66-0.74,1-1.02c0.31,0.37,0.64,0.71,1.02,1.02c-0.31,0.37-0.65,0.71-1.02,1.02
			C249.93,17.41,249.59,17.08,249.22,16.76z M249.75,25.5c-0.13-0.2-0.2-0.55-0.2-1.05c0-0.4,0.01-0.98,0.03-1.72
			c0.02-0.7,0.03-1.21,0.03-1.54c0-0.45-0.03-0.86-0.08-1.24c-0.06-0.38-0.14-0.65-0.25-0.81c0.31-0.12,0.6-0.2,0.88-0.25
			c0.28-0.05,0.59-0.07,0.94-0.07c-0.06,0.32-0.1,0.81-0.14,1.47c-0.04,0.66-0.06,1.4-0.06,2.22c0,0.6,0.02,1.06,0.06,1.38
			c0.04,0.32,0.1,0.57,0.18,0.75c0.08,0.19,0.22,0.38,0.4,0.57c-0.17,0.2-0.37,0.34-0.57,0.44s-0.39,0.15-0.56,0.15
			C250.1,25.79,249.88,25.7,249.75,25.5z"/>
		<path class="st0" d="M253.85,25.65c0.08-1.09,0.11-2.26,0.11-3.49c0-0.6-0.02-1.06-0.06-1.38c-0.04-0.32-0.1-0.57-0.18-0.75
			c-0.08-0.19-0.22-0.38-0.4-0.57c0.17-0.21,0.36-0.36,0.56-0.45c0.2-0.09,0.38-0.14,0.54-0.14c0.58,0,0.91,0.33,1,0.98
			c0.28-0.33,0.62-0.59,1.01-0.77c0.39-0.19,0.78-0.28,1.19-0.28c1.28,0,1.92,0.75,1.92,2.26l-0.03,1.03
			c-0.03,0.4-0.05,0.77-0.05,1.1c0,1.13,0.11,1.95,0.34,2.46c-0.31,0.07-0.6,0.1-0.87,0.1c-0.28,0-0.61-0.03-0.98-0.1
			c0.08-1.32,0.11-2.76,0.11-4.3c0-0.44-0.09-0.75-0.26-0.94c-0.18-0.19-0.47-0.29-0.87-0.29c-0.6,0-1.1,0.13-1.49,0.38l-0.02,0.71
			c-0.03,0.56-0.05,1.22-0.05,1.98c0,1.15,0.11,1.97,0.33,2.46c-0.33,0.07-0.64,0.1-0.93,0.1
			C254.54,25.75,254.23,25.71,253.85,25.65z"/>
		<path class="st0" d="M261.47,27.89c0-0.39,0.08-0.78,0.23-1.16c0.15-0.38,0.37-0.71,0.64-1.01c-0.43-0.15-0.64-0.45-0.64-0.89
			c0-0.31,0.11-0.58,0.34-0.83s0.53-0.44,0.93-0.58c-0.38-0.19-0.68-0.46-0.89-0.81c-0.21-0.36-0.31-0.77-0.31-1.24
			c0-0.77,0.27-1.39,0.8-1.87c0.54-0.48,1.23-0.72,2.07-0.72c0.56,0,1.04,0.12,1.46,0.36c0.22-0.05,0.47-0.17,0.75-0.34
			c0.28-0.17,0.56-0.37,0.84-0.61c0.12,0.2,0.22,0.42,0.3,0.68c0.08,0.26,0.12,0.47,0.12,0.63c-0.35,0.19-0.78,0.3-1.3,0.33
			c0.22,0.4,0.33,0.83,0.33,1.26c0,0.5-0.12,0.95-0.38,1.34c-0.25,0.39-0.6,0.7-1.06,0.92c-0.45,0.22-0.97,0.33-1.53,0.33
			c-0.47,0-0.84,0.07-1.12,0.22c-0.27,0.15-0.41,0.35-0.41,0.6l3.08,0.16c0.59,0.05,1.04,0.22,1.35,0.48s0.47,0.64,0.47,1.11
			c0,0.44-0.15,0.83-0.44,1.19c-0.3,0.36-0.7,0.63-1.22,0.84c-0.52,0.2-1.1,0.3-1.75,0.3C263.04,28.6,262.15,28.36,261.47,27.89z
			 M265.96,27.27c0.35-0.18,0.53-0.4,0.53-0.69c0-0.22-0.08-0.38-0.23-0.48c-0.15-0.1-0.42-0.16-0.79-0.17l-2.46-0.13
			c-0.18,0.32-0.29,0.61-0.34,0.89c0.41,0.57,1.04,0.85,1.89,0.85C265.14,27.53,265.6,27.45,265.96,27.27z M265.5,22.64
			c0.26-0.25,0.39-0.59,0.39-1.03c0-0.39-0.12-0.73-0.35-1.01c-0.24-0.28-0.56-0.47-0.98-0.57c-0.45,0-0.82,0.15-1.11,0.43
			c-0.29,0.29-0.43,0.66-0.43,1.11c0,0.43,0.13,0.77,0.39,1.03c0.26,0.26,0.6,0.39,1.02,0.39C264.88,23.01,265.24,22.88,265.5,22.64
			z"/>
		<path class="st0" d="M163.72,39.28c0.02-0.5,0.02-1.23,0.02-2.19c0-2.01-0.09-3.24-0.28-3.69c0.3-0.07,0.6-0.1,0.9-0.1
			c0.27,0,0.59,0.03,0.95,0.1c-0.05,0.59-0.1,1.36-0.13,2.31c-0.03,0.95-0.05,1.82-0.05,2.61c0,1.14,0.02,1.93,0.07,2.38
			c0.49,0.1,1.06,0.15,1.71,0.15c0.39,0,0.78-0.04,1.17-0.12c0.39-0.08,0.71-0.19,0.98-0.32c0,0.33-0.04,0.66-0.11,1
			c-0.08,0.34-0.16,0.57-0.25,0.69c-0.72-0.08-1.56-0.11-2.53-0.11c-1.16,0-2.03,0.04-2.61,0.11
			C163.65,40.72,163.7,39.78,163.72,39.28z"/>
		<path class="st0" d="M170.33,41.79c-0.27-0.29-0.4-0.66-0.4-1.11c0-1.32,1.29-2.07,3.87-2.23c0-0.72-0.1-1.22-0.31-1.51
			c-0.21-0.28-0.59-0.43-1.15-0.43c-0.34,0-0.68,0.06-1.02,0.16c-0.35,0.11-0.66,0.26-0.94,0.44l-0.13-0.31
			c0.3-0.48,0.69-0.87,1.2-1.17c0.5-0.3,1.02-0.45,1.54-0.45c0.71,0,1.26,0.19,1.64,0.57c0.38,0.38,0.57,0.92,0.57,1.63
			c0,0.39-0.03,0.84-0.08,1.33c-0.04,0.53-0.07,0.91-0.07,1.16c0,0.42,0.04,0.74,0.13,0.97s0.26,0.48,0.51,0.75
			c-0.4,0.35-0.85,0.56-1.33,0.62c-0.3-0.2-0.5-0.5-0.62-0.9c-0.39,0.27-0.8,0.49-1.23,0.66c-0.43,0.16-0.82,0.25-1.18,0.25
			C170.93,42.23,170.6,42.08,170.33,41.79z M172.85,41.21c0.31-0.13,0.58-0.29,0.82-0.48v-0.08c0-0.35,0.02-0.69,0.05-1.02l0.05-0.7
			c-0.74,0.04-1.32,0.2-1.72,0.47c-0.4,0.27-0.61,0.62-0.61,1.07c0,0.19,0.05,0.37,0.15,0.55c0.1,0.18,0.23,0.32,0.39,0.42
			C172.25,41.42,172.54,41.34,172.85,41.21z"/>
		<path class="st0" d="M179.22,41.97c-0.35-0.15-0.65-0.35-0.88-0.61l-0.41,0.69c-0.11,0-0.28-0.03-0.52-0.08
			c0.04-0.51,0.08-1.33,0.11-2.46c0.03-1.13,0.04-2.1,0.04-2.92c0-1.52-0.09-2.58-0.28-3.18c0.54-0.22,1.14-0.33,1.82-0.33
			c-0.09,0.69-0.14,1.69-0.16,3c0.64-0.5,1.33-0.75,2.05-0.75c0.8,0,1.43,0.29,1.91,0.88c0.48,0.59,0.71,1.38,0.71,2.37
			c0,1.17-0.28,2.07-0.84,2.69c-0.56,0.62-1.35,0.94-2.38,0.94C179.96,42.2,179.57,42.12,179.22,41.97z M181.64,40.79
			c0.32-0.38,0.48-0.93,0.48-1.66c0-1.45-0.51-2.37-1.54-2.74c-0.56,0-1.11,0.14-1.66,0.41c-0.02,1.07-0.03,1.77-0.03,2.1
			c0,0.89,0.04,1.53,0.11,1.92c0.38,0.36,0.8,0.54,1.25,0.54C180.85,41.36,181.32,41.17,181.64,40.79z"/>
		<path class="st0" d="M185.82,41.31c-0.55-0.61-0.82-1.41-0.82-2.41c0-0.72,0.15-1.36,0.45-1.93c0.3-0.56,0.72-1,1.26-1.31
			s1.16-0.47,1.85-0.47c0.61,0,1.15,0.14,1.62,0.42s0.83,0.67,1.09,1.17c0.26,0.5,0.39,1.08,0.39,1.74c0,0.72-0.16,1.36-0.47,1.93
			c-0.31,0.56-0.75,1-1.3,1.31c-0.56,0.31-1.19,0.47-1.9,0.47C187.09,42.23,186.37,41.92,185.82,41.31z M189.74,40.91
			c0.35-0.42,0.53-1.01,0.53-1.78c0-0.68-0.16-1.26-0.48-1.76c-0.32-0.49-0.76-0.83-1.31-1c-0.63,0-1.14,0.22-1.52,0.65
			c-0.38,0.43-0.57,1.01-0.57,1.75c0,0.85,0.18,1.53,0.53,2.02c0.35,0.5,0.81,0.75,1.35,0.75C188.9,41.54,189.39,41.33,189.74,40.91
			z"/>
		<path class="st0" d="M193.92,42.05c0.08-1.09,0.11-2.26,0.11-3.49c0-0.6-0.02-1.06-0.06-1.38c-0.04-0.32-0.1-0.57-0.18-0.76
			c-0.08-0.19-0.22-0.38-0.4-0.57c0.17-0.2,0.37-0.34,0.57-0.44c0.21-0.1,0.39-0.15,0.56-0.15c0.62,0,0.95,0.4,0.98,1.21
			c0.28-0.35,0.59-0.64,0.91-0.86c0.32-0.22,0.69-0.39,1.11-0.5c0.08,0.17,0.14,0.43,0.2,0.75c0.06,0.33,0.09,0.63,0.09,0.9
			c-0.13-0.02-0.32-0.03-0.56-0.03c-0.35,0-0.68,0.04-1,0.12c-0.32,0.08-0.57,0.18-0.77,0.3l-0.02,0.51
			c-0.02,0.72-0.03,1.36-0.03,1.92c0,1.15,0.11,1.97,0.33,2.46c-0.33,0.07-0.63,0.1-0.9,0.1C194.6,42.15,194.28,42.11,193.92,42.05z
			"/>
		<path class="st0" d="M199,41.79c-0.27-0.29-0.4-0.66-0.4-1.11c0-1.32,1.29-2.07,3.87-2.23c0-0.72-0.1-1.22-0.31-1.51
			c-0.21-0.28-0.59-0.43-1.15-0.43c-0.34,0-0.68,0.06-1.02,0.16c-0.35,0.11-0.66,0.26-0.94,0.44l-0.13-0.31
			c0.3-0.48,0.69-0.87,1.2-1.17c0.5-0.3,1.02-0.45,1.54-0.45c0.71,0,1.26,0.19,1.64,0.57c0.38,0.38,0.57,0.92,0.57,1.63
			c0,0.39-0.03,0.84-0.08,1.33c-0.04,0.53-0.07,0.91-0.07,1.16c0,0.42,0.04,0.74,0.13,0.97c0.09,0.23,0.26,0.48,0.51,0.75
			c-0.4,0.35-0.85,0.56-1.33,0.62c-0.3-0.2-0.5-0.5-0.62-0.9c-0.39,0.27-0.8,0.49-1.23,0.66c-0.43,0.16-0.82,0.25-1.18,0.25
			C199.6,42.23,199.26,42.08,199,41.79z M201.51,41.21c0.31-0.13,0.58-0.29,0.82-0.48v-0.08c0-0.35,0.02-0.69,0.05-1.02l0.05-0.7
			c-0.74,0.04-1.32,0.2-1.72,0.47s-0.61,0.62-0.61,1.07c0,0.19,0.05,0.37,0.15,0.55c0.1,0.18,0.23,0.32,0.39,0.42
			C200.92,41.42,201.21,41.34,201.51,41.21z"/>
		<path class="st0" d="M206.89,41.91c-0.15-0.19-0.23-0.53-0.23-1.01c0-0.34,0.01-0.89,0.03-1.66c0.02-0.83,0.03-1.52,0.03-2.07
			c0-0.26-0.01-0.51-0.03-0.76c-0.44,0-0.73-0.03-0.88-0.09c-0.15-0.06-0.22-0.17-0.22-0.32c0.71-0.4,1.38-0.96,2.02-1.66l0.39,0.05
			c0.04,0.37,0.07,0.75,0.08,1.15c0.73-0.01,1.27-0.05,1.61-0.13c0,0.23-0.02,0.43-0.07,0.61c-0.04,0.18-0.11,0.36-0.21,0.54
			c-0.32-0.12-0.77-0.19-1.36-0.2c-0.03,0.49-0.05,1.01-0.05,1.54c0,1.34,0.08,2.37,0.25,3.07c0.5-0.03,0.91-0.09,1.21-0.18
			l0.1,0.38c-0.2,0.31-0.47,0.55-0.82,0.74c-0.35,0.19-0.7,0.28-1.05,0.28C207.31,42.2,207.05,42.1,206.89,41.91z"/>
		<path class="st0" d="M211.58,41.31c-0.55-0.61-0.82-1.41-0.82-2.41c0-0.72,0.15-1.36,0.45-1.93c0.3-0.56,0.72-1,1.26-1.31
			s1.16-0.47,1.85-0.47c0.61,0,1.15,0.14,1.62,0.42s0.83,0.67,1.09,1.17c0.26,0.5,0.39,1.08,0.39,1.74c0,0.72-0.16,1.36-0.47,1.93
			c-0.31,0.56-0.75,1-1.3,1.31c-0.56,0.31-1.19,0.47-1.9,0.47C212.85,42.23,212.13,41.92,211.58,41.31z M215.5,40.91
			c0.35-0.42,0.53-1.01,0.53-1.78c0-0.68-0.16-1.26-0.48-1.76c-0.32-0.49-0.76-0.83-1.31-1c-0.63,0-1.14,0.22-1.52,0.65
			s-0.57,1.01-0.57,1.75c0,0.85,0.18,1.53,0.53,2.02c0.35,0.5,0.81,0.75,1.35,0.75C214.67,41.54,215.15,41.33,215.5,40.91z"/>
		<path class="st0" d="M219.68,42.05c0.08-1.09,0.11-2.26,0.11-3.49c0-0.6-0.02-1.06-0.06-1.38c-0.04-0.32-0.1-0.57-0.18-0.76
			c-0.08-0.19-0.22-0.38-0.4-0.57c0.17-0.2,0.37-0.34,0.57-0.44c0.21-0.1,0.39-0.15,0.56-0.15c0.62,0,0.95,0.4,0.98,1.21
			c0.28-0.35,0.59-0.64,0.91-0.86c0.32-0.22,0.69-0.39,1.11-0.5c0.08,0.17,0.14,0.43,0.2,0.75c0.06,0.33,0.09,0.63,0.09,0.9
			c-0.13-0.02-0.32-0.03-0.56-0.03c-0.35,0-0.68,0.04-1,0.12c-0.32,0.08-0.57,0.18-0.77,0.3l-0.02,0.51
			c-0.02,0.72-0.03,1.36-0.03,1.92c0,1.15,0.11,1.97,0.33,2.46c-0.33,0.07-0.63,0.1-0.9,0.1S220.05,42.11,219.68,42.05z"/>
		<path class="st0" d="M224.54,44.33c0-0.95,0.45-1.84,1.35-2.67c-0.58-0.33-0.87-1-0.87-2.02l0.03-0.8l0.03-0.97
			c0-1.12-0.1-1.89-0.3-2.33c0.31-0.12,0.59-0.2,0.85-0.25c0.26-0.05,0.58-0.07,0.95-0.07c-0.07,0.63-0.1,2.07-0.1,4.31
			c0,0.44,0.09,0.75,0.26,0.94c0.18,0.19,0.47,0.29,0.87,0.29c0.63,0,1.17-0.14,1.61-0.43l-0.03-1.92
			c-0.01-0.18-0.02-0.37-0.02-0.57c0-0.51-0.03-0.97-0.08-1.38c-0.05-0.4-0.13-0.71-0.23-0.92c0.54-0.22,1.14-0.33,1.82-0.33
			c-0.08,0.89-0.11,2.25-0.11,4.1c0,0.74,0.01,1.37,0.03,1.88c0.02,0.51,0.03,0.8,0.03,0.86c0,0.97-0.31,1.71-0.94,2.21
			c-0.62,0.5-1.45,0.75-2.49,0.75C226.11,45,225.22,44.78,224.54,44.33z M228.75,43.56c0.32-0.37,0.48-1,0.48-1.91v-0.77
			c-0.32,0.33-0.67,0.58-1.06,0.76c-0.39,0.18-0.8,0.26-1.24,0.26c-0.11,0-0.26-0.01-0.46-0.03c-0.44,0.52-0.7,1.04-0.8,1.56
			c0.2,0.21,0.45,0.37,0.75,0.5c0.3,0.13,0.61,0.19,0.94,0.19C227.96,44.11,228.42,43.93,228.75,43.56z"/>
	</g>
	<g>
		<g>
			<g>
				<path class="st1" d="M27.32,23.98c0.62-0.85,0.92-1.95,0.92-3.3c0-0.82-0.11-1.53-0.31-2.16c-0.7,0.67-1.15,1.49-1.15,2.5
					C26.79,21.84,26.96,22.9,27.32,23.98z"/>
				<path class="st1" d="M35.11,16.19c0.22,1.18,0.32,2.38,0.32,3.55c0,4.4-0.86,7.56-2.17,9.81c0.22,0.02,0.44,0.04,0.68,0.04
					c6.16,0,7.5-5.74,7.5-8.23C41.44,17.36,37.36,16.29,35.11,16.19z"/>
				<path class="st1" d="M28.91,20.69c0,1.67-0.47,2.99-1.33,3.99c0.24,0.58,0.53,1.15,0.87,1.69c1.21-1.39,1.82-3.39,1.82-6
					c0-1.1-0.18-2.12-0.5-3.05c-0.46,0.22-0.9,0.46-1.29,0.75C28.75,18.82,28.91,19.68,28.91,20.69z"/>
				<path class="st1" d="M31.05,20.37c0,3.15-0.85,5.25-2.14,6.64c0.33,0.42,0.69,0.8,1.1,1.14c1.36-1.71,2.26-4.27,2.26-8.1
					c0-1.17-0.16-2.34-0.45-3.46c-0.45,0.12-0.89,0.25-1.33,0.42C30.85,18.04,31.05,19.16,31.05,20.37z"/>
				<path class="st1" d="M33.25,20.05c0,4.09-1,6.83-2.44,8.67c0.41,0.25,0.85,0.45,1.32,0.59c1.34-2.14,2.19-5.21,2.19-9.58
					c0-0.61-0.05-1.95-0.35-3.52c-0.38,0.03-0.79,0.09-1.22,0.17C33.08,17.58,33.25,18.83,33.25,20.05z"/>
				<path class="st2" d="M20.93,10.8c3.42,0,6.24,1.3,8.03,3.46c0.38-0.51,0.69-1.05,0.94-1.59c-1.63-2.04-4.11-3.4-7.55-3.4
					c-1.81,0-5.16,0.44-8.11,1.56c0.05,0.36,0.17,0.71,0.35,1.06C16.68,11.13,19.04,10.8,20.93,10.8z"/>
				<path class="st2" d="M30.81,8.19C30.57,5.09,28.94,0,23.25,0c-4.4,0-7.05,4.15-8.26,7.3c3.35-1.05,6.79-1.47,8.79-1.47
					C26.75,5.83,29.06,6.74,30.81,8.19z"/>
				<path class="st2" d="M16.01,13.62c1.04-0.24,2.21-0.37,3.5-0.37c1.92,0,5.58,0.34,7.72,2.67c0.45-0.3,0.86-0.65,1.21-1.04
					c-1.65-2.07-4.29-3.32-7.52-3.32c-1.77,0-3.97,0.3-5.93,0.97C15.28,12.91,15.62,13.28,16.01,13.62z"/>
				<path class="st2" d="M26.61,16.28c-2-2.05-5.33-2.36-7.1-2.36c-1.03,0-1.98,0.09-2.83,0.24c2.18,1.61,5.31,2.71,7.34,2.71
					C25.01,16.87,25.87,16.64,26.61,16.28z"/>
				<path class="st2" d="M22.34,8.3c3.55,0,6.17,1.37,7.96,3.41c0.29-0.81,0.45-1.55,0.51-2.07c-1.56-1.58-3.8-2.7-7.04-2.7
					c-2,0-5.76,0.48-9.23,1.68c-0.13,0.43-0.21,0.82-0.27,1.14C17.14,8.73,20.28,8.3,22.34,8.3z"/>
				<path class="st3" d="M7.52,16.88c0-2.57,1.64-4.45,3.89-5.79c-0.33-0.22-0.68-0.39-1.03-0.51c-2.12,1.38-3.6,3.21-3.6,5.59
					c0,2.12,0.78,4.84,2.19,7.51c0.23-0.02,0.46-0.06,0.67-0.13C8.28,21.18,7.52,18.76,7.52,16.88z"/>
				<path class="st3" d="M9.35,17.6c0-2.22,1.44-3.82,3.42-4.9c-0.17-0.35-0.35-0.67-0.58-0.93c-2.12,1.18-3.7,2.83-3.7,5.12
					c0,1.75,0.72,4.02,1.98,6.24c0.21-0.15,0.4-0.32,0.58-0.52C9.96,20.82,9.35,19.01,9.35,17.6z"/>
				<path class="st3" d="M8.9,10.28c-0.28-0.03-0.55-0.04-0.79-0.04c-2.58,0-8.1,2.13-8.1,6.06c0,4.21,4.68,6.82,7.73,7.32
					c-1.33-2.67-2.06-5.34-2.06-7.45C5.67,13.71,6.97,11.77,8.9,10.28z"/>
				<path class="st3" d="M11.1,18.31c0-1.48,0.77-2.7,2.14-3.57c-0.03-0.49-0.1-0.94-0.21-1.33c-1.7,0.96-2.91,2.32-2.91,4.19
					c0,1.24,0.5,2.81,1.4,4.38c0.18-0.27,0.33-0.57,0.47-0.88C11.43,20.09,11.1,19.11,11.1,18.31z"/>
				<path class="st3" d="M11.77,18.31c0,0.59,0.2,1.3,0.55,2.03c0.67-1.82,0.9-3.87,0.95-4.83C12.3,16.24,11.77,17.19,11.77,18.31z"
					/>
				<path class="st4" d="M21.63,26.79c-3.05,0-5.65-1.34-7.5-3.05c-0.35,0.14-0.68,0.29-1.02,0.46c2.13,2.49,5.27,4.53,9.01,4.53
					c1.81,0,3.31-0.32,4.52-0.95c-0.24-0.66-0.57-1.23-0.95-1.73C24.6,26.53,23.26,26.79,21.63,26.79z"/>
				<path class="st4" d="M9.55,26.7C8.24,28,7.4,29.49,7.4,30.95c0,5.71,8.9,8.93,12.34,8.93c4.08,0,5.99-2.59,6.82-5.33
					c-1.23,0.31-2.43,0.41-3.48,0.41C17.39,34.96,12.64,31.18,9.55,26.7z"/>
				<path class="st4" d="M18.36,22.83c-1.15,0-2.36,0.24-3.55,0.65c1.72,1.5,4.08,2.64,6.83,2.64c1.45,0,2.63-0.22,3.61-0.61
					C23.08,23.28,19.68,22.83,18.36,22.83z"/>
				<path class="st4" d="M22.13,29.49c-4.04,0-7.41-2.24-9.68-4.95c-0.26,0.14-0.52,0.29-0.77,0.45c2.51,3.41,6.34,6.27,10.93,6.27
					c1.49,0,3.06-0.23,4.51-0.88c-0.01-0.68-0.1-1.3-0.24-1.87C25.4,29.25,23.7,29.49,22.13,29.49z"/>
				<path class="st4" d="M22.61,32.25c-4.92,0-9.02-3.07-11.7-6.72c-0.2,0.15-0.38,0.3-0.57,0.46c2.89,4.26,7.37,7.87,12.74,7.87
					c1.23,0,2.52-0.15,3.77-0.52c0.13-0.65,0.2-1.29,0.24-1.88C25.53,32.06,23.92,32.25,22.61,32.25z"/>
			</g>
		</g>
		<g>
			<g>
				<path class="st0" d="M107.91,0.35v7.38c0.63,0,1.05-0.52,1.05-1.45V0.35H107.91z M91.71,6.06c0.19,0.53,0.67,0.83,1.25,0.83
					h2.65V6.06c0.19,0.53,0.67,0.83,1.26,0.83h0.6c0.44,0,0.69-0.08,0.92-0.26c0.2-0.16,0.44-0.62,0.54-1
					c-0.1,0.85,1.51,1.17,2.45,1.26c0.85,0.09,0.9-0.47,0.9-0.83c0.19,0.53,0.67,0.83,1.25,0.83h2.61V0.35h-1.05v5.71h-1.7
					c-0.72,0-1.12-0.45-1.12-1.17c0-1.33-0.29-2.56-1.5-2.56c-1.93,0-2.22,2.17-2.88,3.24c-0.18,0.3-0.34,0.49-0.83,0.49h-0.34
					c-0.73,0-1.11-0.45-1.11-1.17V0.35h-1.05v5.71h-1.74c-0.72,0-1.11-0.45-1.11-1.17V0.35h-1.05v5.71h-5.25
					c-1.55,0-1.3-1.25-0.55-2.11L84.6,3.7c-1.15,0.95-1.81,2.25-0.85,2.95c0.22,0.16,0.46,0.24,0.97,0.24h7V6.06z M101.22,4.23v1.72
					c-0.98-0.13-1.67-0.41-2.1-0.89c0.12-0.38,0.19-0.65,0.33-1.05C99.7,3.3,100,2.64,100.59,2.8
					C101.03,2.91,101.22,3.52,101.22,4.23z M60.29,0.35v7.38c0.63,0,1.05-0.52,1.05-1.45V0.35H60.29z M54.63,6.89V6.06
					c0.19,0.53,0.67,0.83,1.26,0.83h2.65V0.35h-1.05v5.71h-1.74c-0.72,0-1.12-0.45-1.12-1.17V0.35h-1.05v5.71h-1.72V5.64
					c0-1.73-1.11-3.16-2.67-1.99c-1.07,0.79-1.76,2.31-0.8,3.01c0.22,0.16,0.46,0.24,0.97,0.24H54.63z M50.71,6.06
					c-0.18,0-0.53,0-0.66,0c-1.55,0-1.36-1.5-0.49-2.17c0.77-0.6,1.17,0.36,1.17,1.61L50.71,6.06z M127.94,5.95
					c-0.98-0.13-1.67-0.41-2.1-0.9c0.12-0.38,0.2-0.65,0.33-1.05c0.24-0.71,0.55-1.37,1.14-1.21c0.43,0.11,0.63,0.72,0.63,1.43V5.95
					z M120.23,4.15l0.51-0.75c1.44,0.14,1.21,1.32,0.52,2.08C121.12,4.93,120.64,4.33,120.23,4.15z M116.11,6.06
					c-0.18,0-0.53,0-0.66,0c-1.55,0-1.36-1.5-0.49-2.17c0.77-0.6,1.17,0.36,1.17,1.61L116.11,6.06z M127.5,2.33
					c-1.94,0-2.22,2.17-2.88,3.24c-0.18,0.3-0.34,0.49-0.83,0.49h-2.13c0.63-0.6,1.47-2.08,0.84-2.81
					c-0.59-0.66-1.62-0.65-2.31-0.72l-1.09,1.6c1.01,0.47,1.37,1.01,1.69,1.92h-3.53V5.64c0-1.73-1.11-3.16-2.67-1.99
					c-1.07,0.8-1.76,2.31-0.8,3.01c0.22,0.16,0.46,0.24,0.97,0.24h5.25c0.5,0,0.82-0.08,1.02-0.29c0.19,0.2,0.52,0.29,1.03,0.29
					h2.13c0.44,0,0.69-0.08,0.92-0.26c0.2-0.16,0.44-0.62,0.54-1c-0.1,0.85,1.51,1.17,2.45,1.26c0.84,0.09,0.89-0.47,0.89-0.83
					L129,4.89C129,3.57,128.72,2.33,127.5,2.33z M77.32,6.06c-1.3,0-1.78-0.93-1.81-1.88c-0.03-1.09,1.05-1.45,2.68-0.98l0.12-0.31
					c-0.59-0.23-1.2-0.48-1.83-0.48c-1.46,0-2.15,0.72-2.15,1.88c0,0.81,0.29,1.4,0.83,1.76h-2.3c-0.72,0-1.11-0.45-1.11-1.17V3.85
					H70.7v2.21h-2.32c-0.72,0-1.11-0.45-1.11-1.17V2.46h-1.05v3.6h-1.9c-0.52,0-0.47-0.31-0.27-0.6l-0.28-0.19
					c-0.67,0.71-0.54,1.62,0.66,1.62h2.84V6.06c0.19,0.53,0.67,0.83,1.26,0.83h3.22V6.06c0.19,0.53,0.67,0.83,1.26,0.83h5.56V6.06
					H77.32z M137.9,4.36c-0.59-1.04-1.3-1.8-2.64-1.8l-0.07,0.39c2.11,0.36,1.07,1.69,2.86,3.12h-5.78V0.35h-1.05v5.09
					c0,0.94,0.42,1.45,1.05,1.45h7.78V6.06C138.99,5.76,138.49,5.4,137.9,4.36z M71.52,8.83h-1.03V7.89h1.03V8.83z M116.76,1.99
					h-1.04V1.05h1.04V1.99z M115.18,1.99h-1.04V1.05h1.04V1.99z M137.27,8.83h-1.04V7.89h1.04V8.83z M85.79,3.17
					c0.69-0.27,1.18-0.3,1.85-0.08l0.56-0.68c-1.33-0.02-1.76-0.64-1.45-1.08c0.3-0.43,0.84-0.12,1.24,0.15l0.56-0.68
					c-0.69-0.47-1.41-0.52-2.07,0.3c-0.23,0.29-0.36,0.9,0.03,1.27c-0.41,0.1-0.78,0.36-0.96,0.54L85.79,3.17z"/>
			</g>
			<g>
				<path class="st0" d="M95.02,16.38c-0.18,0-0.53,0.01-0.66,0.01c-1.55,0-1.36-1.5-0.49-2.17c0.77-0.6,1.17,0.36,1.17,1.61
					L95.02,16.38z M103.01,14.47l0.51-0.75c1.44,0.14,1.21,1.32,0.52,2.08C103.91,15.26,103.43,14.66,103.01,14.47z M111.15,10.68
					v5.71h-1.74c-0.72,0-1.12-0.45-1.12-1.17v-4.54h-1.05v5.71h-2.8c0.63-0.6,1.48-2.08,0.83-2.81c-0.58-0.66-1.62-0.65-2.31-0.72
					l-1.09,1.6c1.01,0.47,1.37,1,1.7,1.92h-3.53c-0.72,0-1.11-0.45-1.11-1.17v-4.54h-1.05v5.71h-1.72v-0.43
					c0-1.72-1.11-3.16-2.67-1.99c-1.07,0.8-1.76,2.31-0.8,3.01c0.23,0.16,0.46,0.24,0.97,0.24h1.25c-0.24,1.37-0.55,2.64-2.42,3.53
					l0.1,0.31c1.59-0.47,3.07-1.15,3.46-3.85h2.89v-0.83c0.19,0.53,0.67,0.83,1.26,0.83h2.61c0.51,0,0.82-0.08,1.03-0.29
					c0.19,0.2,0.52,0.29,1.03,0.29h3.44v-0.98c0,0.33,0.15,0.58,0.38,0.75c0.22,0.16,0.46,0.24,0.97,0.24h2.56v-6.54H111.15z
					 M79.36,16.38c-0.18,0-0.53,0.01-0.66,0.01c-1.55,0-1.37-1.5-0.49-2.17c0.77-0.6,1.17,0.36,1.17,1.61L79.36,16.38z M80.5,15.96
					c0.02-1.72-1.11-3.16-2.67-1.99c-1.07,0.79-1.76,2.31-0.8,3.01c0.23,0.16,0.47,0.24,0.97,0.24h1.25
					c-0.24,1.37-0.56,2.64-2.42,3.53l0.1,0.31c1.59-0.47,3.07-1.22,3.45-3.84C80.46,16.77,80.5,16.36,80.5,15.96z M51.86,16.39
					v-0.43c0-1.73-1.11-3.16-2.67-1.99c-1.07,0.8-1.76,2.31-0.8,3.01c0.22,0.16,0.46,0.24,0.97,0.24h5.49v-0.83
					c0.19,0.53,0.67,0.83,1.26,0.83h2.7v-0.83c0.19,0.53,0.67,0.83,1.26,0.83h3.4c0.82,0,0.89-0.47,0.89-0.83
					c0.19,0.53,0.67,0.83,1.26,0.83h2.75v-0.83c0.19,0.53,0.67,0.83,1.25,0.83h2.61v-6.54h-1.05v5.71h-1.7
					c-0.73,0-1.12-0.45-1.12-1.17v-1.05h-1.05v2.22h-1.84c-0.72,0-1.05-0.56-1.13-1.12c-0.12-0.79-0.48-2.05-1.61-2.05
					c-0.65,0-1.61,0.42-1.39,1.5c0.15,0.74,0.81,1.29,1.39,1.67h-2.81c-0.73,0-1.11-0.45-1.11-1.17v-1.05h-1.05v2.22h-1.79
					c-0.72,0-1.11-0.45-1.11-1.17v-1.05H53.8v2.22H51.86z M62.21,14.2c1.09-0.65,1.39,1.53,1.39,2.18
					C62.19,15.62,61.61,14.56,62.21,14.2z M50.71,16.38c-0.18,0-0.53,0.01-0.66,0.01c-1.55,0-1.37-1.5-0.5-2.17
					c0.77-0.6,1.17,0.36,1.17,1.61L50.71,16.38z M51.36,12.32h-1.04v-0.94h1.04V12.32z M58.81,13.26h-1.04v-0.94h1.04V13.26z
					 M49.78,12.32h-1.04v-0.94h1.04V12.32z M63.92,12.32h-1.04v-0.94h1.04V12.32z M62.34,12.32H61.3v-0.94h1.04V12.32z M69.16,13.26
					h-1.04v-0.94h1.04V13.26z M67.57,13.26h-1.03v-0.94h1.03V13.26z M55.63,19.17h-1.04v-0.94h1.04V19.17z M54.05,19.17h-1.04v-0.94
					h1.04V19.17z M89.55,16.27v-1.72c0-0.71-0.19-1.32-0.63-1.43c-0.6-0.16-0.9,0.51-1.14,1.21c-0.12,0.34-0.28,0.86-0.4,1.24
					C88.04,15.68,88.84,15.98,89.55,16.27z M89.1,12.65c1.22,0,1.5,1.23,1.5,2.56l0,1.17c0,0.36-0.11,1.16-0.89,0.83
					c-0.93-0.39-2.25-1.1-2.83-0.71c-0.38,0.26-0.33,0.65-0.33,1.49v2c0,0.94-0.42,1.45-1.05,1.45v-4.04c0-0.95,0.35-1.4,0.79-1.69
					c0.02-0.01,0.04-0.03,0.07-0.04C86.9,14.53,87.32,12.65,89.1,12.65z M74.11,10.68v7.38c0.63,0,1.05-0.52,1.05-1.45v-5.93H74.11z
					"/>
			</g>
			<g>
				<path class="st0" d="M52.44,24.56h0.88v0.81h-0.88V24.56z M52.47,26.29h0.81v3.85h-0.81V26.29z M54.59,26.29h0.82v0.91h0.01
					c0.13-0.28,0.5-1,1.35-1c0.68,0,0.97,0.56,0.97,1.12v2.81h-0.82v-2.4c0-0.49-0.07-0.92-0.49-0.92c-0.81,0-1.03,1.26-1.03,1.74
					v1.59h-0.82V26.29z M61.99,30.02c0,1.08-0.35,1.93-1.9,1.93c-0.5,0-0.82-0.08-1.11-0.15v-0.8c0.26,0.16,0.71,0.47,1.23,0.47
					c0.86,0,0.95-0.6,0.95-1.44V29.6h-0.02c-0.11,0.19-0.34,0.54-1,0.54c-1.02,0-1.45-0.83-1.45-1.97c0-1.09,0.34-1.97,1.45-1.97
					c0.63,0,0.9,0.46,1,0.72h0.02v-0.63h0.81V30.02z M60.38,29.66c0.71,0,0.78-0.82,0.78-1.45c0-0.64-0.1-1.5-0.78-1.5
					c-0.66,0-0.78,0.83-0.78,1.45C59.6,28.82,59.73,29.66,60.38,29.66z M66.88,24.56h0.92l1.87,5.57h-0.92l-0.51-1.66h-1.92
					l-0.51,1.66h-0.79L66.88,24.56z M66.48,27.94h1.59l-0.78-2.58h-0.02L66.48,27.94z M71.13,26.82h0.01
					c0.17-0.24,0.43-0.62,1.07-0.62c1.04,0,1.45,0.87,1.45,2.03c0,1.42-0.7,2-1.71,2c-1.5,0-1.64-1.01-1.64-2v-3.67h0.82V26.82z
					 M71.95,29.88c0.66,0,0.82-0.88,0.82-1.66c0-0.68-0.15-1.56-0.82-1.56c-0.64,0-0.79,0.83-0.79,1.56
					C71.16,29.2,71.28,29.87,71.95,29.88z M76.83,29.5h-0.02c-0.11,0.26-0.38,0.72-1,0.72c-1.1,0-1.45-0.91-1.45-2.01
					c0-1.16,0.43-2.01,1.45-2.01c0.65,0,0.89,0.41,1,0.62h0.02v-2.27h0.82v5.58h-0.82V29.5z M76.03,29.7c0.67,0,0.76-0.86,0.76-1.49
					c0-0.67-0.06-1.54-0.76-1.54c-0.64,0-0.78,0.87-0.78,1.54C75.25,28.85,75.37,29.7,76.03,29.7z M81.22,29.22H81.2
					c-0.13,0.28-0.49,1.01-1.34,1.01c-0.68,0-0.97-0.57-0.97-1.13v-2.81h0.81v2.41c0,0.48,0.08,0.92,0.49,0.92
					c0.8,0,1.04-1.27,1.04-1.74v-1.59h0.82v3.85h-0.83V29.22z M83.33,24.56h0.82v5.58h-0.82V24.56z M85.49,24.56h0.82v5.58h-0.82
					V24.56z M89.51,29.6h-0.02c-0.13,0.23-0.46,0.63-1.08,0.63c-0.61,0-1.05-0.43-1.05-0.96c0-1.19,1.64-1.24,2.15-1.27v-0.34
					c0-0.42,0-1.12-0.54-1.12c-0.5,0-0.59,0.39-0.62,0.84h-0.86c0.04-0.57,0.27-1.18,1.48-1.18c1.25,0,1.36,0.7,1.36,1.45v2.48
					h-0.82V29.6z M89.51,28.33c-0.34,0.02-1.26,0.1-1.26,0.81c0,0.35,0.2,0.57,0.47,0.57c0.28,0,0.79-0.28,0.79-0.93V28.33z
					 M91.56,24.56h0.81v2.64h0.02c0.13-0.28,0.5-1,1.35-1c0.68,0,0.97,0.56,0.97,1.12v2.81H93.9v-2.4c0-0.49-0.07-0.92-0.49-0.92
					c-0.81,0-1.03,1.26-1.03,1.74v1.59h-0.81V24.56z M102.04,28.15c0,1.02-0.17,2.07-1.89,2.07c-1.72,0-1.89-1.05-1.89-2.07v-3.6
					h0.89v3.6c0,0.89,0.07,1.59,1,1.59c0.94,0,1-0.7,1-1.59v-3.6h0.89V28.15z M103.27,26.29h0.82v0.91h0.02c0.12-0.28,0.5-1,1.34-1
					c0.68,0,0.97,0.56,0.97,1.12v2.81h-0.82v-2.4c0-0.49-0.08-0.92-0.49-0.92c-0.81,0-1.03,1.26-1.03,1.74v1.59h-0.82V26.29z
					 M107.68,24.56h0.88v0.81h-0.88V24.56z M107.71,26.29h0.82v3.85h-0.82V26.29z M109.27,26.29h0.87l0.99,2.74h0.02l0.9-2.74h0.75
					l-1.36,3.84h-0.71L109.27,26.29z M116.25,30c-0.34,0.13-0.64,0.22-1.13,0.22c-1.06,0-1.92-0.63-1.92-2.18
					c0-1.07,0.43-1.84,1.64-1.84c1.25,0,1.48,0.83,1.48,1.58h-2.3c0,0.76,0.34,2.02,1.49,2.02c0.25,0,0.5-0.05,0.74-0.17V30z
					 M115.52,27.4c0-0.3-0.11-0.87-0.71-0.87c-0.63,0-0.75,0.65-0.77,0.87H115.52z M117.28,26.29h0.81v0.98h0.02
					c0.26-0.52,0.55-1.01,1.25-1.06v0.84c-0.79,0.03-1.27,0.29-1.27,1.33v1.76h-0.81V26.29z M122.11,27.04
					c-0.27-0.18-0.58-0.38-0.97-0.38c-0.26,0-0.54,0.11-0.54,0.4c0,0.69,1.76,0.76,1.76,1.99c0,0.83-0.65,1.17-1.46,1.17
					c-0.5,0-0.83-0.11-1.03-0.17V29.3c0.23,0.16,0.62,0.4,1.07,0.4c0.47,0,0.67-0.24,0.67-0.49c0-0.68-1.74-0.81-1.74-1.91
					c0-0.58,0.38-1.11,1.34-1.11c0.42,0,0.77,0.11,0.9,0.15V27.04z M123.21,24.56h0.88v0.81h-0.88V24.56z M123.24,26.29h0.82v3.85
					h-0.82V26.29z M127.38,30.16c-0.16,0.04-0.38,0.06-0.57,0.06c-0.77,0-1.21-0.24-1.21-0.98v-2.54h-0.62v-0.42h0.62v-0.9
					l0.81-0.49v1.4h1.06v0.42h-1.06v2.22c0,0.56,0.06,0.84,0.58,0.84c0.13,0,0.27-0.02,0.38-0.06V30.16z M129.16,30.18l-1.48-3.89
					h0.85l1.01,2.75h0.02l0.9-2.75h0.77l-1.98,5.57h-0.66L129.16,30.18z M133.13,28.21c0-1.3,0.57-2.01,1.69-2.01
					c1.13,0,1.7,0.71,1.7,2.01c0,1.3-0.57,2.01-1.7,2.01C133.69,30.23,133.13,29.51,133.13,28.21z M134.82,29.88
					c0.73,0,0.82-0.97,0.82-1.67c0-0.7-0.09-1.68-0.82-1.68c-0.71,0-0.81,0.97-0.81,1.68C134.02,28.91,134.11,29.88,134.82,29.88z
					 M137.79,26.71h-0.67v-0.42h0.67v-0.36c0-0.71,0.17-1.46,1.46-1.46c0.33,0,0.63,0.05,0.82,0.09v0.56
					c-0.17-0.07-0.39-0.18-0.72-0.18c-0.66,0-0.74,0.48-0.74,0.89v0.46h1.09v0.42h-1.09v3.43h-0.82V26.71z M47.93,24.56h0.89v2.46
					h0.01l1.83-2.46h0.89l-1.96,2.54l2.18,3.03h-1.06l-1.88-2.7h-0.01v2.7h-0.89V24.56z"/>
			</g>
			<g>
				<path class="st0" d="M54.98,39.63c-0.33,0.12-0.68,0.19-1.03,0.19c-1.22,0-1.93-0.73-1.93-2.16c0-1.15,0.52-1.86,1.63-1.86
					c1.03,0,1.38,0.55,1.38,1.34h-0.86c0-0.46-0.05-1-0.56-1c-0.47,0-0.71,0.55-0.71,1.24c0,0.94,0.4,2.01,1.38,2.01
					c0.23,0,0.46-0.06,0.68-0.14V39.63z M55.82,34.16h0.88v0.81h-0.88V34.16z M55.85,35.88h0.82v3.85h-0.82V35.88z M60.73,39.6
					c-0.35,0.14-0.64,0.22-1.13,0.22c-1.06,0-1.92-0.63-1.92-2.18c0-1.06,0.43-1.84,1.64-1.84c1.24,0,1.48,0.84,1.48,1.58h-2.3
					c0,0.76,0.34,2.02,1.5,2.02c0.25,0,0.49-0.05,0.74-0.17V39.6z M60,37c0-0.3-0.11-0.86-0.71-0.86c-0.63,0-0.75,0.64-0.77,0.86H60
					z M61.76,35.88h0.82v0.91h0.02c0.13-0.28,0.5-1,1.35-1c0.68,0,0.97,0.57,0.97,1.13v2.81H64.1v-2.41c0-0.49-0.07-0.92-0.48-0.92
					c-0.81,0-1.03,1.26-1.03,1.74v1.6h-0.82V35.88z M68.84,39.63c-0.33,0.12-0.68,0.19-1.03,0.19c-1.22,0-1.93-0.73-1.93-2.16
					c0-1.15,0.52-1.86,1.63-1.86c1.04,0,1.38,0.55,1.38,1.34h-0.85c0-0.46-0.05-1-0.56-1c-0.46,0-0.71,0.55-0.71,1.24
					c0,0.94,0.4,2.01,1.39,2.01c0.23,0,0.46-0.06,0.68-0.14V39.63z M72.43,39.6c-0.34,0.14-0.64,0.22-1.12,0.22
					c-1.06,0-1.92-0.63-1.92-2.18c0-1.06,0.43-1.84,1.64-1.84c1.24,0,1.48,0.84,1.48,1.58h-2.3c0,0.76,0.34,2.02,1.5,2.02
					c0.25,0,0.49-0.05,0.73-0.17V39.6z M71.7,37c0-0.3-0.1-0.86-0.71-0.86c-0.63,0-0.75,0.64-0.77,0.86H71.7z M77.66,39.2h-0.02
					c-0.13,0.23-0.46,0.62-1.08,0.62c-0.61,0-1.05-0.42-1.05-0.96c0-1.19,1.64-1.25,2.15-1.27v-0.34c0-0.42,0-1.12-0.54-1.12
					c-0.5,0-0.59,0.39-0.62,0.85h-0.85c0.04-0.58,0.27-1.19,1.48-1.19c1.25,0,1.36,0.7,1.36,1.46v2.48h-0.82V39.2z M77.66,37.93
					c-0.34,0.03-1.26,0.1-1.26,0.81c0,0.35,0.21,0.57,0.47,0.57c0.28,0,0.79-0.28,0.79-0.93V37.93z M79.72,35.88h0.81v0.91h0.02
					c0.13-0.28,0.5-1,1.35-1c0.68,0,0.97,0.57,0.97,1.13v2.81h-0.82v-2.41c0-0.49-0.07-0.92-0.48-0.92c-0.81,0-1.04,1.26-1.04,1.74
					v1.6h-0.81V35.88z M86.31,39.1H86.3c-0.11,0.26-0.38,0.71-1,0.71c-1.1,0-1.44-0.9-1.44-2.01c0-1.16,0.43-2.01,1.44-2.01
					c0.66,0,0.89,0.41,1,0.62h0.01v-2.26h0.82v5.57h-0.82V39.1z M85.51,39.3c0.67,0,0.77-0.86,0.77-1.49c0-0.67-0.06-1.55-0.77-1.55
					c-0.64,0-0.78,0.88-0.78,1.55C84.74,38.45,84.86,39.3,85.51,39.3z M91.43,34.69h-1.35v-0.53h3.59v0.53h-1.35v5.05h-0.89V34.69z
					 M96.78,39.6c-0.34,0.14-0.64,0.22-1.12,0.22c-1.07,0-1.92-0.63-1.92-2.18c0-1.06,0.43-1.84,1.64-1.84
					c1.24,0,1.48,0.84,1.48,1.58h-2.3c0,0.76,0.33,2.02,1.49,2.02c0.25,0,0.49-0.05,0.74-0.17V39.6z M96.05,37
					c0-0.3-0.1-0.86-0.71-0.86c-0.63,0-0.75,0.64-0.77,0.86H96.05z M100.48,39.63c-0.33,0.12-0.68,0.19-1.03,0.19
					c-1.22,0-1.93-0.73-1.93-2.16c0-1.15,0.53-1.86,1.63-1.86c1.04,0,1.38,0.55,1.38,1.34h-0.86c0-0.46-0.05-1-0.56-1
					c-0.47,0-0.71,0.55-0.71,1.24c0,0.94,0.4,2.01,1.38,2.01c0.23,0,0.46-0.06,0.69-0.14V39.63z M101.31,34.16h0.81v2.64h0.02
					c0.13-0.28,0.5-1,1.35-1c0.68,0,0.97,0.57,0.97,1.13v2.81h-0.82v-2.41c0-0.49-0.07-0.92-0.48-0.92c-0.81,0-1.04,1.26-1.04,1.74
					v1.59h-0.81V34.16z M105.71,35.88h0.82v0.91h0.02c0.13-0.28,0.5-1,1.35-1c0.68,0,0.97,0.57,0.97,1.13v2.81h-0.82v-2.41
					c0-0.49-0.07-0.92-0.48-0.92c-0.81,0-1.03,1.26-1.03,1.74v1.6h-0.82V35.88z M109.84,37.81c0-1.3,0.56-2.01,1.69-2.01
					c1.13,0,1.71,0.71,1.71,2.01c0,1.3-0.57,2.01-1.71,2.01C110.4,39.82,109.84,39.11,109.84,37.81z M111.53,39.48
					c0.73,0,0.82-0.97,0.82-1.67c0-0.71-0.09-1.67-0.82-1.67c-0.72,0-0.81,0.97-0.81,1.67C110.72,38.51,110.81,39.48,111.53,39.48z
					 M114.26,34.16h0.82v5.58h-0.82V34.16z M116.11,37.81c0-1.3,0.57-2.01,1.69-2.01c1.13,0,1.71,0.71,1.71,2.01
					c0,1.3-0.57,2.01-1.71,2.01C116.67,39.82,116.11,39.11,116.11,37.81z M117.8,39.48c0.73,0,0.82-0.97,0.82-1.67
					c0-0.71-0.09-1.67-0.82-1.67c-0.72,0-0.81,0.97-0.81,1.67C116.99,38.51,117.08,39.48,117.8,39.48z M123.48,39.62
					c0,1.08-0.35,1.93-1.9,1.93c-0.5,0-0.82-0.08-1.11-0.15v-0.8c0.26,0.15,0.71,0.47,1.24,0.47c0.86,0,0.95-0.6,0.95-1.45V39.2
					h-0.01c-0.11,0.18-0.34,0.53-1.01,0.53c-1.02,0-1.44-0.83-1.44-1.97c0-1.09,0.34-1.97,1.44-1.97c0.63,0,0.9,0.46,1.01,0.72h0.01
					v-0.63h0.82V39.62z M121.87,39.26c0.71,0,0.77-0.82,0.77-1.45c0-0.63-0.09-1.5-0.77-1.5c-0.66,0-0.78,0.83-0.78,1.45
					C121.09,38.42,121.22,39.26,121.87,39.26z M125.63,39.77l-1.48-3.89h0.85l1.01,2.75h0.02l0.9-2.75h0.77l-1.98,5.58h-0.65
					L125.63,39.77z M51.04,34.98c-0.2-0.11-0.78-0.38-1.38-0.38c-0.49,0-0.84,0.28-0.84,0.7c0,1.17,2.63,1.14,2.63,2.89
					c0,1.17-0.9,1.63-2.03,1.63c-0.63,0-1.25-0.14-1.42-0.21v-0.86c0.25,0.14,0.9,0.48,1.55,0.48c0.58,0,1-0.24,1-0.8
					c0-1.28-2.63-1.2-2.63-2.93c0-0.9,0.67-1.43,1.82-1.43c0.52,0,1.07,0.1,1.29,0.14V34.98z"/>
			</g>
		</g>
	</g>
	<g>
		<rect x="151.33" y="0.46" class="st0" width="0.55" height="41.09"/>
	</g>
</g>
</svg>